<mxfile host="Electron" modified="2024-12-23T15:01:44.591Z" agent="Mozilla/5.0 (Macintosh; Intel Mac OS X 10_15_7) AppleWebKit/537.36 (KHTML, like Gecko) draw.io/24.5.3 Chrome/124.0.6367.207 Electron/30.0.6 Safari/537.36" etag="M8FXKl8Fn9tXTmGkQCBf" version="24.5.3" type="device" pages="6">
  <diagram name="Page-1" id="-H_mtQnk-PTXWXPvYvuk">
    <mxGraphModel dx="1592" dy="1169" grid="1" gridSize="10" guides="1" tooltips="1" connect="1" arrows="1" fold="1" page="1" pageScale="1" pageWidth="1169" pageHeight="827" math="0" shadow="0">
      <root>
        <mxCell id="0" />
        <mxCell id="1" parent="0" />
        <mxCell id="zA23MoTUsTF4_91t8viU-2" value="MongoDB" style="shape=cylinder3;whiteSpace=wrap;html=1;boundedLbl=1;backgroundOutline=1;size=15;" parent="1" vertex="1">
          <mxGeometry x="250" y="370" width="60" height="80" as="geometry" />
        </mxCell>
        <mxCell id="zA23MoTUsTF4_91t8viU-3" value="pymongo-api" style="rounded=1;whiteSpace=wrap;html=1;" parent="1" vertex="1">
          <mxGeometry x="60" y="380" width="120" height="60" as="geometry" />
        </mxCell>
        <mxCell id="4240wPnNZqNC2POQB81s-1" style="edgeStyle=orthogonalEdgeStyle;rounded=0;orthogonalLoop=1;jettySize=auto;html=1;exitX=1;exitY=0.5;exitDx=0;exitDy=0;entryX=0;entryY=0.5;entryDx=0;entryDy=0;entryPerimeter=0;" edge="1" parent="1" source="zA23MoTUsTF4_91t8viU-3" target="zA23MoTUsTF4_91t8viU-2">
          <mxGeometry relative="1" as="geometry" />
        </mxCell>
      </root>
    </mxGraphModel>
  </diagram>
  <diagram name="Task 2 shard" id="XqIH9uGBUxAAq7c6ICWy">
    <mxGraphModel dx="1592" dy="1169" grid="1" gridSize="10" guides="1" tooltips="1" connect="1" arrows="1" fold="1" page="1" pageScale="1" pageWidth="1169" pageHeight="827" math="0" shadow="0">
      <root>
        <mxCell id="O-Vbd2HZS4U_gO_eaYi4-0" />
        <mxCell id="O-Vbd2HZS4U_gO_eaYi4-1" parent="O-Vbd2HZS4U_gO_eaYi4-0" />
        <mxCell id="TDTld5pkL7Nl7ehvNYZn-5" style="edgeStyle=orthogonalEdgeStyle;rounded=0;orthogonalLoop=1;jettySize=auto;html=1;exitX=1;exitY=0.5;exitDx=0;exitDy=0;exitPerimeter=0;entryX=1;entryY=0.5;entryDx=0;entryDy=0;" edge="1" parent="O-Vbd2HZS4U_gO_eaYi4-1" source="O-Vbd2HZS4U_gO_eaYi4-2" target="O-Vbd2HZS4U_gO_eaYi4-9">
          <mxGeometry relative="1" as="geometry">
            <mxPoint x="720" y="120" as="targetPoint" />
            <Array as="points">
              <mxPoint x="570" y="450" />
              <mxPoint x="570" y="110" />
            </Array>
          </mxGeometry>
        </mxCell>
        <mxCell id="O-Vbd2HZS4U_gO_eaYi4-2" value="MongoDB" style="shape=cylinder3;whiteSpace=wrap;html=1;boundedLbl=1;backgroundOutline=1;size=15;" vertex="1" parent="O-Vbd2HZS4U_gO_eaYi4-1">
          <mxGeometry x="460" y="410" width="60" height="80" as="geometry" />
        </mxCell>
        <mxCell id="TDTld5pkL7Nl7ehvNYZn-0" style="edgeStyle=orthogonalEdgeStyle;rounded=0;orthogonalLoop=1;jettySize=auto;html=1;exitX=1;exitY=0.5;exitDx=0;exitDy=0;entryX=0;entryY=0.5;entryDx=0;entryDy=0;" edge="1" parent="O-Vbd2HZS4U_gO_eaYi4-1" source="O-Vbd2HZS4U_gO_eaYi4-3" target="O-Vbd2HZS4U_gO_eaYi4-10">
          <mxGeometry relative="1" as="geometry" />
        </mxCell>
        <mxCell id="O-Vbd2HZS4U_gO_eaYi4-3" value="pymongo-api" style="rounded=1;whiteSpace=wrap;html=1;" vertex="1" parent="O-Vbd2HZS4U_gO_eaYi4-1">
          <mxGeometry x="70" y="420" width="120" height="60" as="geometry" />
        </mxCell>
        <mxCell id="TDTld5pkL7Nl7ehvNYZn-4" style="edgeStyle=orthogonalEdgeStyle;rounded=0;orthogonalLoop=1;jettySize=auto;html=1;exitX=1;exitY=0.5;exitDx=0;exitDy=0;exitPerimeter=0;entryX=1;entryY=0.5;entryDx=0;entryDy=0;" edge="1" parent="O-Vbd2HZS4U_gO_eaYi4-1" source="O-Vbd2HZS4U_gO_eaYi4-4" target="O-Vbd2HZS4U_gO_eaYi4-9">
          <mxGeometry relative="1" as="geometry" />
        </mxCell>
        <mxCell id="O-Vbd2HZS4U_gO_eaYi4-4" value="MongoDB" style="shape=cylinder3;whiteSpace=wrap;html=1;boundedLbl=1;backgroundOutline=1;size=15;" vertex="1" parent="O-Vbd2HZS4U_gO_eaYi4-1">
          <mxGeometry x="460" y="270" width="60" height="80" as="geometry" />
        </mxCell>
        <mxCell id="TDTld5pkL7Nl7ehvNYZn-6" style="edgeStyle=orthogonalEdgeStyle;rounded=0;orthogonalLoop=1;jettySize=auto;html=1;exitX=1;exitY=0.5;exitDx=0;exitDy=0;exitPerimeter=0;entryX=1;entryY=0.5;entryDx=0;entryDy=0;" edge="1" parent="O-Vbd2HZS4U_gO_eaYi4-1" source="O-Vbd2HZS4U_gO_eaYi4-5" target="O-Vbd2HZS4U_gO_eaYi4-9">
          <mxGeometry relative="1" as="geometry">
            <mxPoint x="400" y="150" as="targetPoint" />
            <Array as="points">
              <mxPoint x="600" y="590" />
              <mxPoint x="600" y="110" />
            </Array>
          </mxGeometry>
        </mxCell>
        <mxCell id="O-Vbd2HZS4U_gO_eaYi4-5" value="MongoDB" style="shape=cylinder3;whiteSpace=wrap;html=1;boundedLbl=1;backgroundOutline=1;size=15;" vertex="1" parent="O-Vbd2HZS4U_gO_eaYi4-1">
          <mxGeometry x="460" y="550" width="60" height="80" as="geometry" />
        </mxCell>
        <mxCell id="O-Vbd2HZS4U_gO_eaYi4-6" value="shard-1" style="text;html=1;align=center;verticalAlign=middle;resizable=0;points=[];autosize=1;strokeColor=none;fillColor=none;" vertex="1" parent="O-Vbd2HZS4U_gO_eaYi4-1">
          <mxGeometry x="460" y="350" width="60" height="30" as="geometry" />
        </mxCell>
        <mxCell id="O-Vbd2HZS4U_gO_eaYi4-7" value="shard-2" style="text;html=1;align=center;verticalAlign=middle;resizable=0;points=[];autosize=1;strokeColor=none;fillColor=none;" vertex="1" parent="O-Vbd2HZS4U_gO_eaYi4-1">
          <mxGeometry x="460" y="490" width="60" height="30" as="geometry" />
        </mxCell>
        <mxCell id="O-Vbd2HZS4U_gO_eaYi4-8" value="shard-3" style="text;html=1;align=center;verticalAlign=middle;resizable=0;points=[];autosize=1;strokeColor=none;fillColor=none;" vertex="1" parent="O-Vbd2HZS4U_gO_eaYi4-1">
          <mxGeometry x="460" y="630" width="60" height="30" as="geometry" />
        </mxCell>
        <mxCell id="O-Vbd2HZS4U_gO_eaYi4-9" value="Конфигурационный сервер" style="rounded=1;whiteSpace=wrap;html=1;" vertex="1" parent="O-Vbd2HZS4U_gO_eaYi4-1">
          <mxGeometry x="250" y="80" width="120" height="60" as="geometry" />
        </mxCell>
        <mxCell id="TDTld5pkL7Nl7ehvNYZn-7" style="edgeStyle=orthogonalEdgeStyle;rounded=0;orthogonalLoop=1;jettySize=auto;html=1;exitX=0.5;exitY=0;exitDx=0;exitDy=0;entryX=0.5;entryY=1;entryDx=0;entryDy=0;" edge="1" parent="O-Vbd2HZS4U_gO_eaYi4-1" source="O-Vbd2HZS4U_gO_eaYi4-10" target="O-Vbd2HZS4U_gO_eaYi4-9">
          <mxGeometry relative="1" as="geometry" />
        </mxCell>
        <mxCell id="O-Vbd2HZS4U_gO_eaYi4-10" value="Роутер" style="rounded=1;whiteSpace=wrap;html=1;" vertex="1" parent="O-Vbd2HZS4U_gO_eaYi4-1">
          <mxGeometry x="250" y="430" width="120" height="40" as="geometry" />
        </mxCell>
        <mxCell id="TDTld5pkL7Nl7ehvNYZn-1" style="edgeStyle=orthogonalEdgeStyle;rounded=0;orthogonalLoop=1;jettySize=auto;html=1;exitX=1;exitY=0.5;exitDx=0;exitDy=0;entryX=0;entryY=0.5;entryDx=0;entryDy=0;entryPerimeter=0;" edge="1" parent="O-Vbd2HZS4U_gO_eaYi4-1" source="O-Vbd2HZS4U_gO_eaYi4-10" target="O-Vbd2HZS4U_gO_eaYi4-4">
          <mxGeometry relative="1" as="geometry" />
        </mxCell>
        <mxCell id="TDTld5pkL7Nl7ehvNYZn-2" style="edgeStyle=orthogonalEdgeStyle;rounded=0;orthogonalLoop=1;jettySize=auto;html=1;exitX=1;exitY=0.5;exitDx=0;exitDy=0;entryX=0;entryY=0.5;entryDx=0;entryDy=0;entryPerimeter=0;" edge="1" parent="O-Vbd2HZS4U_gO_eaYi4-1" source="O-Vbd2HZS4U_gO_eaYi4-10" target="O-Vbd2HZS4U_gO_eaYi4-2">
          <mxGeometry relative="1" as="geometry" />
        </mxCell>
        <mxCell id="TDTld5pkL7Nl7ehvNYZn-3" style="edgeStyle=orthogonalEdgeStyle;rounded=0;orthogonalLoop=1;jettySize=auto;html=1;exitX=1;exitY=0.5;exitDx=0;exitDy=0;entryX=0;entryY=0.5;entryDx=0;entryDy=0;entryPerimeter=0;" edge="1" parent="O-Vbd2HZS4U_gO_eaYi4-1" source="O-Vbd2HZS4U_gO_eaYi4-10" target="O-Vbd2HZS4U_gO_eaYi4-5">
          <mxGeometry relative="1" as="geometry" />
        </mxCell>
      </root>
    </mxGraphModel>
  </diagram>
  <diagram name="Task 3 repl" id="jqdi1Em7x-it5C4nMNXT">
    <mxGraphModel dx="1990" dy="1462" grid="1" gridSize="10" guides="1" tooltips="1" connect="1" arrows="1" fold="1" page="1" pageScale="1" pageWidth="1169" pageHeight="827" math="0" shadow="0">
      <root>
        <mxCell id="-qvD_EUvRbv9mv05W3aQ-0" />
        <mxCell id="-qvD_EUvRbv9mv05W3aQ-1" parent="-qvD_EUvRbv9mv05W3aQ-0" />
        <mxCell id="RvT4yYFclAm2_hWXDUM3-23" style="edgeStyle=orthogonalEdgeStyle;rounded=0;orthogonalLoop=1;jettySize=auto;html=1;exitX=1;exitY=0.5;exitDx=0;exitDy=0;entryX=1;entryY=0.5;entryDx=0;entryDy=0;" edge="1" parent="-qvD_EUvRbv9mv05W3aQ-1" source="RvT4yYFclAm2_hWXDUM3-14" target="-qvD_EUvRbv9mv05W3aQ-13">
          <mxGeometry relative="1" as="geometry" />
        </mxCell>
        <mxCell id="RvT4yYFclAm2_hWXDUM3-14" value="" style="rounded=0;whiteSpace=wrap;html=1;" vertex="1" parent="-qvD_EUvRbv9mv05W3aQ-1">
          <mxGeometry x="600" y="205" width="340" height="150" as="geometry" />
        </mxCell>
        <mxCell id="-qvD_EUvRbv9mv05W3aQ-4" style="edgeStyle=orthogonalEdgeStyle;rounded=0;orthogonalLoop=1;jettySize=auto;html=1;exitX=1;exitY=0.5;exitDx=0;exitDy=0;entryX=0;entryY=0.5;entryDx=0;entryDy=0;" edge="1" parent="-qvD_EUvRbv9mv05W3aQ-1" source="-qvD_EUvRbv9mv05W3aQ-5" target="-qvD_EUvRbv9mv05W3aQ-15">
          <mxGeometry relative="1" as="geometry" />
        </mxCell>
        <mxCell id="-qvD_EUvRbv9mv05W3aQ-5" value="pymongo-api" style="rounded=1;whiteSpace=wrap;html=1;" vertex="1" parent="-qvD_EUvRbv9mv05W3aQ-1">
          <mxGeometry x="140" y="420" width="120" height="60" as="geometry" />
        </mxCell>
        <mxCell id="-qvD_EUvRbv9mv05W3aQ-7" value="MongoDB" style="shape=cylinder3;whiteSpace=wrap;html=1;boundedLbl=1;backgroundOutline=1;size=15;" vertex="1" parent="-qvD_EUvRbv9mv05W3aQ-1">
          <mxGeometry x="640" y="245" width="60" height="80" as="geometry" />
        </mxCell>
        <mxCell id="-qvD_EUvRbv9mv05W3aQ-10" value="shard-1" style="text;html=1;align=center;verticalAlign=middle;resizable=0;points=[];autosize=1;strokeColor=none;fillColor=none;" vertex="1" parent="-qvD_EUvRbv9mv05W3aQ-1">
          <mxGeometry x="640" y="325" width="60" height="30" as="geometry" />
        </mxCell>
        <mxCell id="-qvD_EUvRbv9mv05W3aQ-13" value="Конфигурационный сервер" style="rounded=1;whiteSpace=wrap;html=1;" vertex="1" parent="-qvD_EUvRbv9mv05W3aQ-1">
          <mxGeometry x="430" y="80" width="120" height="60" as="geometry" />
        </mxCell>
        <mxCell id="-qvD_EUvRbv9mv05W3aQ-14" style="edgeStyle=orthogonalEdgeStyle;rounded=0;orthogonalLoop=1;jettySize=auto;html=1;exitX=0.5;exitY=0;exitDx=0;exitDy=0;entryX=0.5;entryY=1;entryDx=0;entryDy=0;" edge="1" parent="-qvD_EUvRbv9mv05W3aQ-1" source="-qvD_EUvRbv9mv05W3aQ-15" target="-qvD_EUvRbv9mv05W3aQ-13">
          <mxGeometry relative="1" as="geometry" />
        </mxCell>
        <mxCell id="RvT4yYFclAm2_hWXDUM3-20" style="edgeStyle=orthogonalEdgeStyle;rounded=0;orthogonalLoop=1;jettySize=auto;html=1;exitX=1;exitY=0.5;exitDx=0;exitDy=0;entryX=0;entryY=0.5;entryDx=0;entryDy=0;" edge="1" parent="-qvD_EUvRbv9mv05W3aQ-1" source="-qvD_EUvRbv9mv05W3aQ-15" target="RvT4yYFclAm2_hWXDUM3-14">
          <mxGeometry relative="1" as="geometry" />
        </mxCell>
        <mxCell id="RvT4yYFclAm2_hWXDUM3-21" style="edgeStyle=orthogonalEdgeStyle;rounded=0;orthogonalLoop=1;jettySize=auto;html=1;exitX=1;exitY=0.5;exitDx=0;exitDy=0;entryX=0;entryY=0.5;entryDx=0;entryDy=0;" edge="1" parent="-qvD_EUvRbv9mv05W3aQ-1" source="-qvD_EUvRbv9mv05W3aQ-15" target="RvT4yYFclAm2_hWXDUM3-17">
          <mxGeometry relative="1" as="geometry" />
        </mxCell>
        <mxCell id="RvT4yYFclAm2_hWXDUM3-22" style="edgeStyle=orthogonalEdgeStyle;rounded=0;orthogonalLoop=1;jettySize=auto;html=1;exitX=1;exitY=0.5;exitDx=0;exitDy=0;entryX=0;entryY=0.5;entryDx=0;entryDy=0;" edge="1" parent="-qvD_EUvRbv9mv05W3aQ-1" source="-qvD_EUvRbv9mv05W3aQ-15" target="RvT4yYFclAm2_hWXDUM3-19">
          <mxGeometry relative="1" as="geometry" />
        </mxCell>
        <mxCell id="-qvD_EUvRbv9mv05W3aQ-15" value="Роутер" style="rounded=1;whiteSpace=wrap;html=1;" vertex="1" parent="-qvD_EUvRbv9mv05W3aQ-1">
          <mxGeometry x="430" y="430" width="120" height="40" as="geometry" />
        </mxCell>
        <mxCell id="RvT4yYFclAm2_hWXDUM3-3" value="MongoDB&lt;div&gt;реплика&lt;br&gt;&lt;/div&gt;" style="shape=cylinder3;whiteSpace=wrap;html=1;boundedLbl=1;backgroundOutline=1;size=15;" vertex="1" parent="-qvD_EUvRbv9mv05W3aQ-1">
          <mxGeometry x="740" y="245" width="60" height="80" as="geometry" />
        </mxCell>
        <mxCell id="RvT4yYFclAm2_hWXDUM3-5" value="shard-1-1" style="text;html=1;align=center;verticalAlign=middle;resizable=0;points=[];autosize=1;strokeColor=none;fillColor=none;" vertex="1" parent="-qvD_EUvRbv9mv05W3aQ-1">
          <mxGeometry x="735" y="325" width="70" height="30" as="geometry" />
        </mxCell>
        <mxCell id="RvT4yYFclAm2_hWXDUM3-9" value="MongoDB&lt;div&gt;реплика&lt;br&gt;&lt;/div&gt;" style="shape=cylinder3;whiteSpace=wrap;html=1;boundedLbl=1;backgroundOutline=1;size=15;" vertex="1" parent="-qvD_EUvRbv9mv05W3aQ-1">
          <mxGeometry x="840" y="245" width="60" height="80" as="geometry" />
        </mxCell>
        <mxCell id="RvT4yYFclAm2_hWXDUM3-11" value="shard-1-2" style="text;html=1;align=center;verticalAlign=middle;resizable=0;points=[];autosize=1;strokeColor=none;fillColor=none;" vertex="1" parent="-qvD_EUvRbv9mv05W3aQ-1">
          <mxGeometry x="835" y="325" width="70" height="30" as="geometry" />
        </mxCell>
        <mxCell id="RvT4yYFclAm2_hWXDUM3-15" value="Шард 1" style="text;html=1;align=center;verticalAlign=middle;resizable=0;points=[];autosize=1;strokeColor=none;fillColor=none;" vertex="1" parent="-qvD_EUvRbv9mv05W3aQ-1">
          <mxGeometry x="600" y="205" width="70" height="30" as="geometry" />
        </mxCell>
        <mxCell id="RvT4yYFclAm2_hWXDUM3-24" style="edgeStyle=orthogonalEdgeStyle;rounded=0;orthogonalLoop=1;jettySize=auto;html=1;exitX=1;exitY=0.5;exitDx=0;exitDy=0;entryX=1;entryY=0.5;entryDx=0;entryDy=0;" edge="1" parent="-qvD_EUvRbv9mv05W3aQ-1" source="RvT4yYFclAm2_hWXDUM3-17" target="-qvD_EUvRbv9mv05W3aQ-13">
          <mxGeometry relative="1" as="geometry">
            <mxPoint x="560" y="180.00000000000023" as="targetPoint" />
            <Array as="points">
              <mxPoint x="980" y="450" />
              <mxPoint x="980" y="110" />
            </Array>
          </mxGeometry>
        </mxCell>
        <mxCell id="RvT4yYFclAm2_hWXDUM3-17" value="" style="rounded=0;whiteSpace=wrap;html=1;" vertex="1" parent="-qvD_EUvRbv9mv05W3aQ-1">
          <mxGeometry x="600" y="375" width="340" height="150" as="geometry" />
        </mxCell>
        <mxCell id="-qvD_EUvRbv9mv05W3aQ-3" value="MongoDB" style="shape=cylinder3;whiteSpace=wrap;html=1;boundedLbl=1;backgroundOutline=1;size=15;" vertex="1" parent="-qvD_EUvRbv9mv05W3aQ-1">
          <mxGeometry x="640" y="415" width="60" height="80" as="geometry" />
        </mxCell>
        <mxCell id="-qvD_EUvRbv9mv05W3aQ-11" value="shard-2" style="text;html=1;align=center;verticalAlign=middle;resizable=0;points=[];autosize=1;strokeColor=none;fillColor=none;" vertex="1" parent="-qvD_EUvRbv9mv05W3aQ-1">
          <mxGeometry x="640" y="495" width="60" height="30" as="geometry" />
        </mxCell>
        <mxCell id="RvT4yYFclAm2_hWXDUM3-2" value="MongoDB&lt;div&gt;реплика&lt;/div&gt;" style="shape=cylinder3;whiteSpace=wrap;html=1;boundedLbl=1;backgroundOutline=1;size=15;" vertex="1" parent="-qvD_EUvRbv9mv05W3aQ-1">
          <mxGeometry x="740" y="415" width="60" height="80" as="geometry" />
        </mxCell>
        <mxCell id="RvT4yYFclAm2_hWXDUM3-6" value="shard-2-1" style="text;html=1;align=center;verticalAlign=middle;resizable=0;points=[];autosize=1;strokeColor=none;fillColor=none;" vertex="1" parent="-qvD_EUvRbv9mv05W3aQ-1">
          <mxGeometry x="735" y="495" width="70" height="30" as="geometry" />
        </mxCell>
        <mxCell id="RvT4yYFclAm2_hWXDUM3-8" value="MongoDB&lt;div&gt;реплика&lt;br&gt;&lt;/div&gt;" style="shape=cylinder3;whiteSpace=wrap;html=1;boundedLbl=1;backgroundOutline=1;size=15;" vertex="1" parent="-qvD_EUvRbv9mv05W3aQ-1">
          <mxGeometry x="840" y="415" width="60" height="80" as="geometry" />
        </mxCell>
        <mxCell id="RvT4yYFclAm2_hWXDUM3-12" value="shard-2-2" style="text;html=1;align=center;verticalAlign=middle;resizable=0;points=[];autosize=1;strokeColor=none;fillColor=none;" vertex="1" parent="-qvD_EUvRbv9mv05W3aQ-1">
          <mxGeometry x="835" y="495" width="70" height="30" as="geometry" />
        </mxCell>
        <mxCell id="RvT4yYFclAm2_hWXDUM3-16" value="Шард 2" style="text;html=1;align=center;verticalAlign=middle;resizable=0;points=[];autosize=1;strokeColor=none;fillColor=none;" vertex="1" parent="-qvD_EUvRbv9mv05W3aQ-1">
          <mxGeometry x="600" y="375" width="70" height="30" as="geometry" />
        </mxCell>
        <mxCell id="RvT4yYFclAm2_hWXDUM3-25" style="edgeStyle=orthogonalEdgeStyle;rounded=0;orthogonalLoop=1;jettySize=auto;html=1;exitX=1;exitY=0.5;exitDx=0;exitDy=0;entryX=1;entryY=0.5;entryDx=0;entryDy=0;" edge="1" parent="-qvD_EUvRbv9mv05W3aQ-1" source="RvT4yYFclAm2_hWXDUM3-19" target="-qvD_EUvRbv9mv05W3aQ-13">
          <mxGeometry relative="1" as="geometry">
            <mxPoint x="540" y="160" as="targetPoint" />
            <Array as="points">
              <mxPoint x="1000" y="620" />
              <mxPoint x="1000" y="110" />
            </Array>
          </mxGeometry>
        </mxCell>
        <mxCell id="RvT4yYFclAm2_hWXDUM3-19" value="" style="rounded=0;whiteSpace=wrap;html=1;" vertex="1" parent="-qvD_EUvRbv9mv05W3aQ-1">
          <mxGeometry x="600" y="545" width="340" height="150" as="geometry" />
        </mxCell>
        <mxCell id="-qvD_EUvRbv9mv05W3aQ-9" value="MongoDB" style="shape=cylinder3;whiteSpace=wrap;html=1;boundedLbl=1;backgroundOutline=1;size=15;" vertex="1" parent="-qvD_EUvRbv9mv05W3aQ-1">
          <mxGeometry x="640" y="585" width="60" height="80" as="geometry" />
        </mxCell>
        <mxCell id="-qvD_EUvRbv9mv05W3aQ-12" value="shard-3" style="text;html=1;align=center;verticalAlign=middle;resizable=0;points=[];autosize=1;strokeColor=none;fillColor=none;" vertex="1" parent="-qvD_EUvRbv9mv05W3aQ-1">
          <mxGeometry x="640" y="665" width="60" height="30" as="geometry" />
        </mxCell>
        <mxCell id="RvT4yYFclAm2_hWXDUM3-4" value="MongoDB&lt;div&gt;реплика&lt;br&gt;&lt;/div&gt;" style="shape=cylinder3;whiteSpace=wrap;html=1;boundedLbl=1;backgroundOutline=1;size=15;" vertex="1" parent="-qvD_EUvRbv9mv05W3aQ-1">
          <mxGeometry x="740" y="585" width="60" height="80" as="geometry" />
        </mxCell>
        <mxCell id="RvT4yYFclAm2_hWXDUM3-7" value="shard-3-1" style="text;html=1;align=center;verticalAlign=middle;resizable=0;points=[];autosize=1;strokeColor=none;fillColor=none;" vertex="1" parent="-qvD_EUvRbv9mv05W3aQ-1">
          <mxGeometry x="735" y="665" width="70" height="30" as="geometry" />
        </mxCell>
        <mxCell id="RvT4yYFclAm2_hWXDUM3-10" value="MongoDB&lt;div&gt;реплика&lt;br&gt;&lt;/div&gt;" style="shape=cylinder3;whiteSpace=wrap;html=1;boundedLbl=1;backgroundOutline=1;size=15;" vertex="1" parent="-qvD_EUvRbv9mv05W3aQ-1">
          <mxGeometry x="840" y="585" width="60" height="80" as="geometry" />
        </mxCell>
        <mxCell id="RvT4yYFclAm2_hWXDUM3-13" value="shard-3-2" style="text;html=1;align=center;verticalAlign=middle;resizable=0;points=[];autosize=1;strokeColor=none;fillColor=none;" vertex="1" parent="-qvD_EUvRbv9mv05W3aQ-1">
          <mxGeometry x="835" y="665" width="70" height="30" as="geometry" />
        </mxCell>
        <mxCell id="RvT4yYFclAm2_hWXDUM3-18" value="Шард 3" style="text;html=1;align=center;verticalAlign=middle;resizable=0;points=[];autosize=1;strokeColor=none;fillColor=none;" vertex="1" parent="-qvD_EUvRbv9mv05W3aQ-1">
          <mxGeometry x="600" y="545" width="70" height="30" as="geometry" />
        </mxCell>
        <mxCell id="RvT4yYFclAm2_hWXDUM3-26" style="edgeStyle=orthogonalEdgeStyle;rounded=0;orthogonalLoop=1;jettySize=auto;html=1;exitX=1;exitY=0.5;exitDx=0;exitDy=0;exitPerimeter=0;entryX=0;entryY=0.5;entryDx=0;entryDy=0;entryPerimeter=0;endArrow=none;endFill=0;" edge="1" parent="-qvD_EUvRbv9mv05W3aQ-1" source="-qvD_EUvRbv9mv05W3aQ-7" target="RvT4yYFclAm2_hWXDUM3-3">
          <mxGeometry relative="1" as="geometry" />
        </mxCell>
        <mxCell id="RvT4yYFclAm2_hWXDUM3-27" style="edgeStyle=orthogonalEdgeStyle;rounded=0;orthogonalLoop=1;jettySize=auto;html=1;exitX=1;exitY=0.5;exitDx=0;exitDy=0;exitPerimeter=0;entryX=0;entryY=0.5;entryDx=0;entryDy=0;entryPerimeter=0;endArrow=none;endFill=0;" edge="1" parent="-qvD_EUvRbv9mv05W3aQ-1" source="RvT4yYFclAm2_hWXDUM3-3" target="RvT4yYFclAm2_hWXDUM3-9">
          <mxGeometry relative="1" as="geometry">
            <mxPoint x="710" y="295" as="sourcePoint" />
            <mxPoint x="750" y="295" as="targetPoint" />
          </mxGeometry>
        </mxCell>
        <mxCell id="RvT4yYFclAm2_hWXDUM3-28" style="edgeStyle=orthogonalEdgeStyle;rounded=0;orthogonalLoop=1;jettySize=auto;html=1;exitX=1;exitY=0.5;exitDx=0;exitDy=0;exitPerimeter=0;entryX=0;entryY=0.5;entryDx=0;entryDy=0;entryPerimeter=0;endArrow=none;endFill=0;" edge="1" parent="-qvD_EUvRbv9mv05W3aQ-1" source="RvT4yYFclAm2_hWXDUM3-2" target="RvT4yYFclAm2_hWXDUM3-8">
          <mxGeometry relative="1" as="geometry">
            <mxPoint x="810" y="295" as="sourcePoint" />
            <mxPoint x="850" y="295" as="targetPoint" />
          </mxGeometry>
        </mxCell>
        <mxCell id="RvT4yYFclAm2_hWXDUM3-29" style="edgeStyle=orthogonalEdgeStyle;rounded=0;orthogonalLoop=1;jettySize=auto;html=1;exitX=1;exitY=0.5;exitDx=0;exitDy=0;exitPerimeter=0;entryX=0;entryY=0.5;entryDx=0;entryDy=0;entryPerimeter=0;endArrow=none;endFill=0;" edge="1" parent="-qvD_EUvRbv9mv05W3aQ-1" source="-qvD_EUvRbv9mv05W3aQ-3" target="RvT4yYFclAm2_hWXDUM3-2">
          <mxGeometry relative="1" as="geometry">
            <mxPoint x="810" y="465" as="sourcePoint" />
            <mxPoint x="850" y="465" as="targetPoint" />
          </mxGeometry>
        </mxCell>
        <mxCell id="RvT4yYFclAm2_hWXDUM3-30" style="edgeStyle=orthogonalEdgeStyle;rounded=0;orthogonalLoop=1;jettySize=auto;html=1;exitX=1;exitY=0.5;exitDx=0;exitDy=0;exitPerimeter=0;entryX=0;entryY=0.5;entryDx=0;entryDy=0;entryPerimeter=0;endArrow=none;endFill=0;" edge="1" parent="-qvD_EUvRbv9mv05W3aQ-1" source="-qvD_EUvRbv9mv05W3aQ-9" target="RvT4yYFclAm2_hWXDUM3-4">
          <mxGeometry relative="1" as="geometry">
            <mxPoint x="710" y="465" as="sourcePoint" />
            <mxPoint x="750" y="465" as="targetPoint" />
          </mxGeometry>
        </mxCell>
        <mxCell id="RvT4yYFclAm2_hWXDUM3-31" style="edgeStyle=orthogonalEdgeStyle;rounded=0;orthogonalLoop=1;jettySize=auto;html=1;exitX=1;exitY=0.5;exitDx=0;exitDy=0;exitPerimeter=0;entryX=0;entryY=0.5;entryDx=0;entryDy=0;entryPerimeter=0;endArrow=none;endFill=0;" edge="1" parent="-qvD_EUvRbv9mv05W3aQ-1" source="RvT4yYFclAm2_hWXDUM3-4" target="RvT4yYFclAm2_hWXDUM3-10">
          <mxGeometry relative="1" as="geometry">
            <mxPoint x="710" y="635" as="sourcePoint" />
            <mxPoint x="750" y="635" as="targetPoint" />
          </mxGeometry>
        </mxCell>
        <mxCell id="RvT4yYFclAm2_hWXDUM3-32" style="edgeStyle=orthogonalEdgeStyle;rounded=0;orthogonalLoop=1;jettySize=auto;html=1;exitX=0;exitY=0.5;exitDx=0;exitDy=0;exitPerimeter=0;entryX=1;entryY=0.5;entryDx=0;entryDy=0;entryPerimeter=0;endArrow=none;endFill=0;" edge="1" parent="-qvD_EUvRbv9mv05W3aQ-1" source="-qvD_EUvRbv9mv05W3aQ-9" target="RvT4yYFclAm2_hWXDUM3-10">
          <mxGeometry relative="1" as="geometry">
            <mxPoint x="810" y="635" as="sourcePoint" />
            <mxPoint x="850" y="635" as="targetPoint" />
            <Array as="points">
              <mxPoint x="620" y="625" />
              <mxPoint x="620" y="580" />
              <mxPoint x="920" y="580" />
              <mxPoint x="920" y="625" />
            </Array>
          </mxGeometry>
        </mxCell>
        <mxCell id="RvT4yYFclAm2_hWXDUM3-33" style="edgeStyle=orthogonalEdgeStyle;rounded=0;orthogonalLoop=1;jettySize=auto;html=1;exitX=0;exitY=0.5;exitDx=0;exitDy=0;exitPerimeter=0;entryX=1;entryY=0.5;entryDx=0;entryDy=0;entryPerimeter=0;endArrow=none;endFill=0;" edge="1" parent="-qvD_EUvRbv9mv05W3aQ-1" source="-qvD_EUvRbv9mv05W3aQ-3" target="RvT4yYFclAm2_hWXDUM3-8">
          <mxGeometry relative="1" as="geometry">
            <mxPoint x="650" y="635" as="sourcePoint" />
            <mxPoint x="910" y="635" as="targetPoint" />
            <Array as="points">
              <mxPoint x="620" y="455" />
              <mxPoint x="620" y="410" />
              <mxPoint x="920" y="410" />
              <mxPoint x="920" y="455" />
            </Array>
          </mxGeometry>
        </mxCell>
        <mxCell id="RvT4yYFclAm2_hWXDUM3-34" style="edgeStyle=orthogonalEdgeStyle;rounded=0;orthogonalLoop=1;jettySize=auto;html=1;exitX=0;exitY=0.5;exitDx=0;exitDy=0;exitPerimeter=0;entryX=1;entryY=0.5;entryDx=0;entryDy=0;entryPerimeter=0;endArrow=none;endFill=0;" edge="1" parent="-qvD_EUvRbv9mv05W3aQ-1" source="-qvD_EUvRbv9mv05W3aQ-7" target="RvT4yYFclAm2_hWXDUM3-9">
          <mxGeometry relative="1" as="geometry">
            <mxPoint x="650" y="465" as="sourcePoint" />
            <mxPoint x="910" y="465" as="targetPoint" />
            <Array as="points">
              <mxPoint x="620" y="285" />
              <mxPoint x="620" y="240" />
              <mxPoint x="920" y="240" />
              <mxPoint x="920" y="285" />
            </Array>
          </mxGeometry>
        </mxCell>
      </root>
    </mxGraphModel>
  </diagram>
  <diagram name="Task 4 cache" id="4lTOMT1SdJKTlRVHQEeh">
    <mxGraphModel dx="1194" dy="877" grid="1" gridSize="10" guides="1" tooltips="1" connect="1" arrows="1" fold="1" page="1" pageScale="1" pageWidth="1169" pageHeight="827" math="0" shadow="0">
      <root>
        <mxCell id="sVK3L4Stjx9oOMC_9pYB-0" />
        <mxCell id="sVK3L4Stjx9oOMC_9pYB-1" parent="sVK3L4Stjx9oOMC_9pYB-0" />
        <mxCell id="sVK3L4Stjx9oOMC_9pYB-2" style="edgeStyle=orthogonalEdgeStyle;rounded=0;orthogonalLoop=1;jettySize=auto;html=1;exitX=1;exitY=0.5;exitDx=0;exitDy=0;entryX=1;entryY=0.5;entryDx=0;entryDy=0;" edge="1" parent="sVK3L4Stjx9oOMC_9pYB-1" source="sVK3L4Stjx9oOMC_9pYB-3" target="sVK3L4Stjx9oOMC_9pYB-8">
          <mxGeometry relative="1" as="geometry" />
        </mxCell>
        <mxCell id="sVK3L4Stjx9oOMC_9pYB-3" value="" style="rounded=0;whiteSpace=wrap;html=1;" vertex="1" parent="sVK3L4Stjx9oOMC_9pYB-1">
          <mxGeometry x="600" y="205" width="340" height="150" as="geometry" />
        </mxCell>
        <mxCell id="sVK3L4Stjx9oOMC_9pYB-4" style="edgeStyle=orthogonalEdgeStyle;rounded=0;orthogonalLoop=1;jettySize=auto;html=1;exitX=1;exitY=0.5;exitDx=0;exitDy=0;entryX=0;entryY=0.5;entryDx=0;entryDy=0;" edge="1" parent="sVK3L4Stjx9oOMC_9pYB-1" source="sVK3L4Stjx9oOMC_9pYB-5" target="sVK3L4Stjx9oOMC_9pYB-13">
          <mxGeometry relative="1" as="geometry" />
        </mxCell>
        <mxCell id="sVK3L4Stjx9oOMC_9pYB-5" value="pymongo-api" style="rounded=1;whiteSpace=wrap;html=1;" vertex="1" parent="sVK3L4Stjx9oOMC_9pYB-1">
          <mxGeometry x="140" y="420" width="120" height="60" as="geometry" />
        </mxCell>
        <mxCell id="sVK3L4Stjx9oOMC_9pYB-6" value="MongoDB" style="shape=cylinder3;whiteSpace=wrap;html=1;boundedLbl=1;backgroundOutline=1;size=15;" vertex="1" parent="sVK3L4Stjx9oOMC_9pYB-1">
          <mxGeometry x="640" y="245" width="60" height="80" as="geometry" />
        </mxCell>
        <mxCell id="sVK3L4Stjx9oOMC_9pYB-7" value="shard-1" style="text;html=1;align=center;verticalAlign=middle;resizable=0;points=[];autosize=1;strokeColor=none;fillColor=none;" vertex="1" parent="sVK3L4Stjx9oOMC_9pYB-1">
          <mxGeometry x="640" y="325" width="60" height="30" as="geometry" />
        </mxCell>
        <mxCell id="sVK3L4Stjx9oOMC_9pYB-8" value="Конфигурационный сервер" style="rounded=1;whiteSpace=wrap;html=1;" vertex="1" parent="sVK3L4Stjx9oOMC_9pYB-1">
          <mxGeometry x="430" y="80" width="120" height="60" as="geometry" />
        </mxCell>
        <mxCell id="sVK3L4Stjx9oOMC_9pYB-9" style="edgeStyle=orthogonalEdgeStyle;rounded=0;orthogonalLoop=1;jettySize=auto;html=1;exitX=0.5;exitY=0;exitDx=0;exitDy=0;entryX=0.5;entryY=1;entryDx=0;entryDy=0;" edge="1" parent="sVK3L4Stjx9oOMC_9pYB-1" source="sVK3L4Stjx9oOMC_9pYB-13" target="sVK3L4Stjx9oOMC_9pYB-8">
          <mxGeometry relative="1" as="geometry" />
        </mxCell>
        <mxCell id="sVK3L4Stjx9oOMC_9pYB-10" style="edgeStyle=orthogonalEdgeStyle;rounded=0;orthogonalLoop=1;jettySize=auto;html=1;exitX=1;exitY=0.5;exitDx=0;exitDy=0;entryX=0;entryY=0.5;entryDx=0;entryDy=0;" edge="1" parent="sVK3L4Stjx9oOMC_9pYB-1" source="sVK3L4Stjx9oOMC_9pYB-13" target="sVK3L4Stjx9oOMC_9pYB-3">
          <mxGeometry relative="1" as="geometry" />
        </mxCell>
        <mxCell id="sVK3L4Stjx9oOMC_9pYB-11" style="edgeStyle=orthogonalEdgeStyle;rounded=0;orthogonalLoop=1;jettySize=auto;html=1;exitX=1;exitY=0.5;exitDx=0;exitDy=0;entryX=0;entryY=0.5;entryDx=0;entryDy=0;" edge="1" parent="sVK3L4Stjx9oOMC_9pYB-1" source="sVK3L4Stjx9oOMC_9pYB-13" target="sVK3L4Stjx9oOMC_9pYB-20">
          <mxGeometry relative="1" as="geometry" />
        </mxCell>
        <mxCell id="sVK3L4Stjx9oOMC_9pYB-12" style="edgeStyle=orthogonalEdgeStyle;rounded=0;orthogonalLoop=1;jettySize=auto;html=1;exitX=1;exitY=0.5;exitDx=0;exitDy=0;entryX=0;entryY=0.5;entryDx=0;entryDy=0;" edge="1" parent="sVK3L4Stjx9oOMC_9pYB-1" source="sVK3L4Stjx9oOMC_9pYB-13" target="sVK3L4Stjx9oOMC_9pYB-29">
          <mxGeometry relative="1" as="geometry" />
        </mxCell>
        <mxCell id="sVK3L4Stjx9oOMC_9pYB-13" value="Роутер" style="rounded=1;whiteSpace=wrap;html=1;" vertex="1" parent="sVK3L4Stjx9oOMC_9pYB-1">
          <mxGeometry x="430" y="430" width="120" height="40" as="geometry" />
        </mxCell>
        <mxCell id="sVK3L4Stjx9oOMC_9pYB-14" value="MongoDB&lt;div&gt;реплика&lt;br&gt;&lt;/div&gt;" style="shape=cylinder3;whiteSpace=wrap;html=1;boundedLbl=1;backgroundOutline=1;size=15;" vertex="1" parent="sVK3L4Stjx9oOMC_9pYB-1">
          <mxGeometry x="740" y="245" width="60" height="80" as="geometry" />
        </mxCell>
        <mxCell id="sVK3L4Stjx9oOMC_9pYB-15" value="shard-1-1" style="text;html=1;align=center;verticalAlign=middle;resizable=0;points=[];autosize=1;strokeColor=none;fillColor=none;" vertex="1" parent="sVK3L4Stjx9oOMC_9pYB-1">
          <mxGeometry x="735" y="325" width="70" height="30" as="geometry" />
        </mxCell>
        <mxCell id="sVK3L4Stjx9oOMC_9pYB-16" value="MongoDB&lt;div&gt;реплика&lt;br&gt;&lt;/div&gt;" style="shape=cylinder3;whiteSpace=wrap;html=1;boundedLbl=1;backgroundOutline=1;size=15;" vertex="1" parent="sVK3L4Stjx9oOMC_9pYB-1">
          <mxGeometry x="840" y="245" width="60" height="80" as="geometry" />
        </mxCell>
        <mxCell id="sVK3L4Stjx9oOMC_9pYB-17" value="shard-1-2" style="text;html=1;align=center;verticalAlign=middle;resizable=0;points=[];autosize=1;strokeColor=none;fillColor=none;" vertex="1" parent="sVK3L4Stjx9oOMC_9pYB-1">
          <mxGeometry x="835" y="325" width="70" height="30" as="geometry" />
        </mxCell>
        <mxCell id="sVK3L4Stjx9oOMC_9pYB-18" value="Шард 1" style="text;html=1;align=center;verticalAlign=middle;resizable=0;points=[];autosize=1;strokeColor=none;fillColor=none;" vertex="1" parent="sVK3L4Stjx9oOMC_9pYB-1">
          <mxGeometry x="600" y="205" width="70" height="30" as="geometry" />
        </mxCell>
        <mxCell id="sVK3L4Stjx9oOMC_9pYB-19" style="edgeStyle=orthogonalEdgeStyle;rounded=0;orthogonalLoop=1;jettySize=auto;html=1;exitX=1;exitY=0.5;exitDx=0;exitDy=0;entryX=1;entryY=0.5;entryDx=0;entryDy=0;" edge="1" parent="sVK3L4Stjx9oOMC_9pYB-1" source="sVK3L4Stjx9oOMC_9pYB-20" target="sVK3L4Stjx9oOMC_9pYB-8">
          <mxGeometry relative="1" as="geometry">
            <mxPoint x="560" y="180.00000000000023" as="targetPoint" />
            <Array as="points">
              <mxPoint x="980" y="450" />
              <mxPoint x="980" y="110" />
            </Array>
          </mxGeometry>
        </mxCell>
        <mxCell id="sVK3L4Stjx9oOMC_9pYB-20" value="" style="rounded=0;whiteSpace=wrap;html=1;" vertex="1" parent="sVK3L4Stjx9oOMC_9pYB-1">
          <mxGeometry x="600" y="375" width="340" height="150" as="geometry" />
        </mxCell>
        <mxCell id="sVK3L4Stjx9oOMC_9pYB-21" value="MongoDB" style="shape=cylinder3;whiteSpace=wrap;html=1;boundedLbl=1;backgroundOutline=1;size=15;" vertex="1" parent="sVK3L4Stjx9oOMC_9pYB-1">
          <mxGeometry x="640" y="415" width="60" height="80" as="geometry" />
        </mxCell>
        <mxCell id="sVK3L4Stjx9oOMC_9pYB-22" value="shard-2" style="text;html=1;align=center;verticalAlign=middle;resizable=0;points=[];autosize=1;strokeColor=none;fillColor=none;" vertex="1" parent="sVK3L4Stjx9oOMC_9pYB-1">
          <mxGeometry x="640" y="495" width="60" height="30" as="geometry" />
        </mxCell>
        <mxCell id="sVK3L4Stjx9oOMC_9pYB-23" value="MongoDB&lt;div&gt;реплика&lt;/div&gt;" style="shape=cylinder3;whiteSpace=wrap;html=1;boundedLbl=1;backgroundOutline=1;size=15;" vertex="1" parent="sVK3L4Stjx9oOMC_9pYB-1">
          <mxGeometry x="740" y="415" width="60" height="80" as="geometry" />
        </mxCell>
        <mxCell id="sVK3L4Stjx9oOMC_9pYB-24" value="shard-2-1" style="text;html=1;align=center;verticalAlign=middle;resizable=0;points=[];autosize=1;strokeColor=none;fillColor=none;" vertex="1" parent="sVK3L4Stjx9oOMC_9pYB-1">
          <mxGeometry x="735" y="495" width="70" height="30" as="geometry" />
        </mxCell>
        <mxCell id="sVK3L4Stjx9oOMC_9pYB-25" value="MongoDB&lt;div&gt;реплика&lt;br&gt;&lt;/div&gt;" style="shape=cylinder3;whiteSpace=wrap;html=1;boundedLbl=1;backgroundOutline=1;size=15;" vertex="1" parent="sVK3L4Stjx9oOMC_9pYB-1">
          <mxGeometry x="840" y="415" width="60" height="80" as="geometry" />
        </mxCell>
        <mxCell id="sVK3L4Stjx9oOMC_9pYB-26" value="shard-2-2" style="text;html=1;align=center;verticalAlign=middle;resizable=0;points=[];autosize=1;strokeColor=none;fillColor=none;" vertex="1" parent="sVK3L4Stjx9oOMC_9pYB-1">
          <mxGeometry x="835" y="495" width="70" height="30" as="geometry" />
        </mxCell>
        <mxCell id="sVK3L4Stjx9oOMC_9pYB-27" value="Шард 2" style="text;html=1;align=center;verticalAlign=middle;resizable=0;points=[];autosize=1;strokeColor=none;fillColor=none;" vertex="1" parent="sVK3L4Stjx9oOMC_9pYB-1">
          <mxGeometry x="600" y="375" width="70" height="30" as="geometry" />
        </mxCell>
        <mxCell id="sVK3L4Stjx9oOMC_9pYB-28" style="edgeStyle=orthogonalEdgeStyle;rounded=0;orthogonalLoop=1;jettySize=auto;html=1;exitX=1;exitY=0.5;exitDx=0;exitDy=0;entryX=1;entryY=0.5;entryDx=0;entryDy=0;" edge="1" parent="sVK3L4Stjx9oOMC_9pYB-1" source="sVK3L4Stjx9oOMC_9pYB-29" target="sVK3L4Stjx9oOMC_9pYB-8">
          <mxGeometry relative="1" as="geometry">
            <mxPoint x="540" y="160" as="targetPoint" />
            <Array as="points">
              <mxPoint x="1000" y="620" />
              <mxPoint x="1000" y="110" />
            </Array>
          </mxGeometry>
        </mxCell>
        <mxCell id="sVK3L4Stjx9oOMC_9pYB-29" value="" style="rounded=0;whiteSpace=wrap;html=1;" vertex="1" parent="sVK3L4Stjx9oOMC_9pYB-1">
          <mxGeometry x="600" y="545" width="340" height="150" as="geometry" />
        </mxCell>
        <mxCell id="sVK3L4Stjx9oOMC_9pYB-30" value="MongoDB" style="shape=cylinder3;whiteSpace=wrap;html=1;boundedLbl=1;backgroundOutline=1;size=15;" vertex="1" parent="sVK3L4Stjx9oOMC_9pYB-1">
          <mxGeometry x="640" y="585" width="60" height="80" as="geometry" />
        </mxCell>
        <mxCell id="sVK3L4Stjx9oOMC_9pYB-31" value="shard-3" style="text;html=1;align=center;verticalAlign=middle;resizable=0;points=[];autosize=1;strokeColor=none;fillColor=none;" vertex="1" parent="sVK3L4Stjx9oOMC_9pYB-1">
          <mxGeometry x="640" y="665" width="60" height="30" as="geometry" />
        </mxCell>
        <mxCell id="sVK3L4Stjx9oOMC_9pYB-32" value="MongoDB&lt;div&gt;реплика&lt;br&gt;&lt;/div&gt;" style="shape=cylinder3;whiteSpace=wrap;html=1;boundedLbl=1;backgroundOutline=1;size=15;" vertex="1" parent="sVK3L4Stjx9oOMC_9pYB-1">
          <mxGeometry x="740" y="585" width="60" height="80" as="geometry" />
        </mxCell>
        <mxCell id="sVK3L4Stjx9oOMC_9pYB-33" value="shard-3-1" style="text;html=1;align=center;verticalAlign=middle;resizable=0;points=[];autosize=1;strokeColor=none;fillColor=none;" vertex="1" parent="sVK3L4Stjx9oOMC_9pYB-1">
          <mxGeometry x="735" y="665" width="70" height="30" as="geometry" />
        </mxCell>
        <mxCell id="sVK3L4Stjx9oOMC_9pYB-34" value="MongoDB&lt;div&gt;реплика&lt;br&gt;&lt;/div&gt;" style="shape=cylinder3;whiteSpace=wrap;html=1;boundedLbl=1;backgroundOutline=1;size=15;" vertex="1" parent="sVK3L4Stjx9oOMC_9pYB-1">
          <mxGeometry x="840" y="585" width="60" height="80" as="geometry" />
        </mxCell>
        <mxCell id="sVK3L4Stjx9oOMC_9pYB-35" value="shard-3-2" style="text;html=1;align=center;verticalAlign=middle;resizable=0;points=[];autosize=1;strokeColor=none;fillColor=none;" vertex="1" parent="sVK3L4Stjx9oOMC_9pYB-1">
          <mxGeometry x="835" y="665" width="70" height="30" as="geometry" />
        </mxCell>
        <mxCell id="sVK3L4Stjx9oOMC_9pYB-36" value="Шард 3" style="text;html=1;align=center;verticalAlign=middle;resizable=0;points=[];autosize=1;strokeColor=none;fillColor=none;" vertex="1" parent="sVK3L4Stjx9oOMC_9pYB-1">
          <mxGeometry x="600" y="545" width="70" height="30" as="geometry" />
        </mxCell>
        <mxCell id="sVK3L4Stjx9oOMC_9pYB-37" style="edgeStyle=orthogonalEdgeStyle;rounded=0;orthogonalLoop=1;jettySize=auto;html=1;exitX=1;exitY=0.5;exitDx=0;exitDy=0;exitPerimeter=0;entryX=0;entryY=0.5;entryDx=0;entryDy=0;entryPerimeter=0;endArrow=none;endFill=0;" edge="1" parent="sVK3L4Stjx9oOMC_9pYB-1" source="sVK3L4Stjx9oOMC_9pYB-6" target="sVK3L4Stjx9oOMC_9pYB-14">
          <mxGeometry relative="1" as="geometry" />
        </mxCell>
        <mxCell id="sVK3L4Stjx9oOMC_9pYB-38" style="edgeStyle=orthogonalEdgeStyle;rounded=0;orthogonalLoop=1;jettySize=auto;html=1;exitX=1;exitY=0.5;exitDx=0;exitDy=0;exitPerimeter=0;entryX=0;entryY=0.5;entryDx=0;entryDy=0;entryPerimeter=0;endArrow=none;endFill=0;" edge="1" parent="sVK3L4Stjx9oOMC_9pYB-1" source="sVK3L4Stjx9oOMC_9pYB-14" target="sVK3L4Stjx9oOMC_9pYB-16">
          <mxGeometry relative="1" as="geometry">
            <mxPoint x="710" y="295" as="sourcePoint" />
            <mxPoint x="750" y="295" as="targetPoint" />
          </mxGeometry>
        </mxCell>
        <mxCell id="sVK3L4Stjx9oOMC_9pYB-39" style="edgeStyle=orthogonalEdgeStyle;rounded=0;orthogonalLoop=1;jettySize=auto;html=1;exitX=1;exitY=0.5;exitDx=0;exitDy=0;exitPerimeter=0;entryX=0;entryY=0.5;entryDx=0;entryDy=0;entryPerimeter=0;endArrow=none;endFill=0;" edge="1" parent="sVK3L4Stjx9oOMC_9pYB-1" source="sVK3L4Stjx9oOMC_9pYB-23" target="sVK3L4Stjx9oOMC_9pYB-25">
          <mxGeometry relative="1" as="geometry">
            <mxPoint x="810" y="295" as="sourcePoint" />
            <mxPoint x="850" y="295" as="targetPoint" />
          </mxGeometry>
        </mxCell>
        <mxCell id="sVK3L4Stjx9oOMC_9pYB-40" style="edgeStyle=orthogonalEdgeStyle;rounded=0;orthogonalLoop=1;jettySize=auto;html=1;exitX=1;exitY=0.5;exitDx=0;exitDy=0;exitPerimeter=0;entryX=0;entryY=0.5;entryDx=0;entryDy=0;entryPerimeter=0;endArrow=none;endFill=0;" edge="1" parent="sVK3L4Stjx9oOMC_9pYB-1" source="sVK3L4Stjx9oOMC_9pYB-21" target="sVK3L4Stjx9oOMC_9pYB-23">
          <mxGeometry relative="1" as="geometry">
            <mxPoint x="810" y="465" as="sourcePoint" />
            <mxPoint x="850" y="465" as="targetPoint" />
          </mxGeometry>
        </mxCell>
        <mxCell id="sVK3L4Stjx9oOMC_9pYB-41" style="edgeStyle=orthogonalEdgeStyle;rounded=0;orthogonalLoop=1;jettySize=auto;html=1;exitX=1;exitY=0.5;exitDx=0;exitDy=0;exitPerimeter=0;entryX=0;entryY=0.5;entryDx=0;entryDy=0;entryPerimeter=0;endArrow=none;endFill=0;" edge="1" parent="sVK3L4Stjx9oOMC_9pYB-1" source="sVK3L4Stjx9oOMC_9pYB-30" target="sVK3L4Stjx9oOMC_9pYB-32">
          <mxGeometry relative="1" as="geometry">
            <mxPoint x="710" y="465" as="sourcePoint" />
            <mxPoint x="750" y="465" as="targetPoint" />
          </mxGeometry>
        </mxCell>
        <mxCell id="sVK3L4Stjx9oOMC_9pYB-42" style="edgeStyle=orthogonalEdgeStyle;rounded=0;orthogonalLoop=1;jettySize=auto;html=1;exitX=1;exitY=0.5;exitDx=0;exitDy=0;exitPerimeter=0;entryX=0;entryY=0.5;entryDx=0;entryDy=0;entryPerimeter=0;endArrow=none;endFill=0;" edge="1" parent="sVK3L4Stjx9oOMC_9pYB-1" source="sVK3L4Stjx9oOMC_9pYB-32" target="sVK3L4Stjx9oOMC_9pYB-34">
          <mxGeometry relative="1" as="geometry">
            <mxPoint x="710" y="635" as="sourcePoint" />
            <mxPoint x="750" y="635" as="targetPoint" />
          </mxGeometry>
        </mxCell>
        <mxCell id="sVK3L4Stjx9oOMC_9pYB-43" style="edgeStyle=orthogonalEdgeStyle;rounded=0;orthogonalLoop=1;jettySize=auto;html=1;exitX=0;exitY=0.5;exitDx=0;exitDy=0;exitPerimeter=0;entryX=1;entryY=0.5;entryDx=0;entryDy=0;entryPerimeter=0;endArrow=none;endFill=0;" edge="1" parent="sVK3L4Stjx9oOMC_9pYB-1" source="sVK3L4Stjx9oOMC_9pYB-30" target="sVK3L4Stjx9oOMC_9pYB-34">
          <mxGeometry relative="1" as="geometry">
            <mxPoint x="810" y="635" as="sourcePoint" />
            <mxPoint x="850" y="635" as="targetPoint" />
            <Array as="points">
              <mxPoint x="620" y="625" />
              <mxPoint x="620" y="580" />
              <mxPoint x="920" y="580" />
              <mxPoint x="920" y="625" />
            </Array>
          </mxGeometry>
        </mxCell>
        <mxCell id="sVK3L4Stjx9oOMC_9pYB-44" style="edgeStyle=orthogonalEdgeStyle;rounded=0;orthogonalLoop=1;jettySize=auto;html=1;exitX=0;exitY=0.5;exitDx=0;exitDy=0;exitPerimeter=0;entryX=1;entryY=0.5;entryDx=0;entryDy=0;entryPerimeter=0;endArrow=none;endFill=0;" edge="1" parent="sVK3L4Stjx9oOMC_9pYB-1" source="sVK3L4Stjx9oOMC_9pYB-21" target="sVK3L4Stjx9oOMC_9pYB-25">
          <mxGeometry relative="1" as="geometry">
            <mxPoint x="650" y="635" as="sourcePoint" />
            <mxPoint x="910" y="635" as="targetPoint" />
            <Array as="points">
              <mxPoint x="620" y="455" />
              <mxPoint x="620" y="410" />
              <mxPoint x="920" y="410" />
              <mxPoint x="920" y="455" />
            </Array>
          </mxGeometry>
        </mxCell>
        <mxCell id="sVK3L4Stjx9oOMC_9pYB-45" style="edgeStyle=orthogonalEdgeStyle;rounded=0;orthogonalLoop=1;jettySize=auto;html=1;exitX=0;exitY=0.5;exitDx=0;exitDy=0;exitPerimeter=0;entryX=1;entryY=0.5;entryDx=0;entryDy=0;entryPerimeter=0;endArrow=none;endFill=0;" edge="1" parent="sVK3L4Stjx9oOMC_9pYB-1" source="sVK3L4Stjx9oOMC_9pYB-6" target="sVK3L4Stjx9oOMC_9pYB-16">
          <mxGeometry relative="1" as="geometry">
            <mxPoint x="650" y="465" as="sourcePoint" />
            <mxPoint x="910" y="465" as="targetPoint" />
            <Array as="points">
              <mxPoint x="620" y="285" />
              <mxPoint x="620" y="240" />
              <mxPoint x="920" y="240" />
              <mxPoint x="920" y="285" />
            </Array>
          </mxGeometry>
        </mxCell>
        <mxCell id="sVK3L4Stjx9oOMC_9pYB-46" value="redis" style="shape=cylinder3;whiteSpace=wrap;html=1;boundedLbl=1;backgroundOutline=1;size=15;" vertex="1" parent="sVK3L4Stjx9oOMC_9pYB-1">
          <mxGeometry x="165" y="300" width="70" height="80" as="geometry" />
        </mxCell>
        <mxCell id="sVK3L4Stjx9oOMC_9pYB-47" style="edgeStyle=orthogonalEdgeStyle;rounded=0;orthogonalLoop=1;jettySize=auto;html=1;exitX=0.5;exitY=0;exitDx=0;exitDy=0;entryX=0.5;entryY=1;entryDx=0;entryDy=0;entryPerimeter=0;" edge="1" parent="sVK3L4Stjx9oOMC_9pYB-1" source="sVK3L4Stjx9oOMC_9pYB-5" target="sVK3L4Stjx9oOMC_9pYB-46">
          <mxGeometry relative="1" as="geometry" />
        </mxCell>
      </root>
    </mxGraphModel>
  </diagram>
  <diagram name="Task 5 Gateway" id="HN6RtEwP7le2peIhm7_D">
    <mxGraphModel dx="2171" dy="1595" grid="1" gridSize="10" guides="1" tooltips="1" connect="1" arrows="1" fold="1" page="1" pageScale="1" pageWidth="1500" pageHeight="1000" math="0" shadow="0">
      <root>
        <mxCell id="X4RoaQpKEemjvvecKfR2-0" />
        <mxCell id="X4RoaQpKEemjvvecKfR2-1" parent="X4RoaQpKEemjvvecKfR2-0" />
        <mxCell id="X4RoaQpKEemjvvecKfR2-2" style="edgeStyle=orthogonalEdgeStyle;rounded=0;orthogonalLoop=1;jettySize=auto;html=1;exitX=1;exitY=0.5;exitDx=0;exitDy=0;entryX=1;entryY=0.5;entryDx=0;entryDy=0;" edge="1" parent="X4RoaQpKEemjvvecKfR2-1" source="X4RoaQpKEemjvvecKfR2-3" target="X4RoaQpKEemjvvecKfR2-8">
          <mxGeometry relative="1" as="geometry" />
        </mxCell>
        <mxCell id="X4RoaQpKEemjvvecKfR2-3" value="" style="rounded=0;whiteSpace=wrap;html=1;" vertex="1" parent="X4RoaQpKEemjvvecKfR2-1">
          <mxGeometry x="1040" y="200" width="340" height="150" as="geometry" />
        </mxCell>
        <mxCell id="X4RoaQpKEemjvvecKfR2-4" style="edgeStyle=orthogonalEdgeStyle;rounded=0;orthogonalLoop=1;jettySize=auto;html=1;exitX=1;exitY=0.5;exitDx=0;exitDy=0;entryX=0;entryY=0.5;entryDx=0;entryDy=0;" edge="1" parent="X4RoaQpKEemjvvecKfR2-1" source="X4RoaQpKEemjvvecKfR2-5" target="X4RoaQpKEemjvvecKfR2-13">
          <mxGeometry relative="1" as="geometry">
            <mxPoint x="830" y="445.0000000000002" as="targetPoint" />
            <Array as="points">
              <mxPoint x="730" y="315" />
              <mxPoint x="730" y="445" />
            </Array>
          </mxGeometry>
        </mxCell>
        <mxCell id="WXCaOLnDMrgFpI3_JhB8-27" style="edgeStyle=orthogonalEdgeStyle;rounded=0;orthogonalLoop=1;jettySize=auto;html=1;exitX=1;exitY=0.25;exitDx=0;exitDy=0;fillColor=#ffe6cc;strokeColor=#d79b00;entryX=1;entryY=0.5;entryDx=0;entryDy=0;" edge="1" parent="X4RoaQpKEemjvvecKfR2-1" source="X4RoaQpKEemjvvecKfR2-5" target="WXCaOLnDMrgFpI3_JhB8-6">
          <mxGeometry relative="1" as="geometry">
            <Array as="points">
              <mxPoint x="730" y="300" />
              <mxPoint x="730" y="215" />
            </Array>
          </mxGeometry>
        </mxCell>
        <mxCell id="WXCaOLnDMrgFpI3_JhB8-28" value="Регистрация" style="edgeLabel;html=1;align=center;verticalAlign=middle;resizable=0;points=[];" vertex="1" connectable="0" parent="WXCaOLnDMrgFpI3_JhB8-27">
          <mxGeometry x="0.4189" y="-3" relative="1" as="geometry">
            <mxPoint x="60" y="-12" as="offset" />
          </mxGeometry>
        </mxCell>
        <mxCell id="X4RoaQpKEemjvvecKfR2-5" value="pymongo-api" style="rounded=1;whiteSpace=wrap;html=1;" vertex="1" parent="X4RoaQpKEemjvvecKfR2-1">
          <mxGeometry x="540" y="285" width="120" height="60" as="geometry" />
        </mxCell>
        <mxCell id="X4RoaQpKEemjvvecKfR2-6" value="MongoDB" style="shape=cylinder3;whiteSpace=wrap;html=1;boundedLbl=1;backgroundOutline=1;size=15;" vertex="1" parent="X4RoaQpKEemjvvecKfR2-1">
          <mxGeometry x="1080" y="240" width="60" height="80" as="geometry" />
        </mxCell>
        <mxCell id="X4RoaQpKEemjvvecKfR2-7" value="shard-1" style="text;html=1;align=center;verticalAlign=middle;resizable=0;points=[];autosize=1;strokeColor=none;fillColor=none;" vertex="1" parent="X4RoaQpKEemjvvecKfR2-1">
          <mxGeometry x="1080" y="320" width="60" height="30" as="geometry" />
        </mxCell>
        <mxCell id="X4RoaQpKEemjvvecKfR2-8" value="Конфигурационный сервер" style="rounded=1;whiteSpace=wrap;html=1;" vertex="1" parent="X4RoaQpKEemjvvecKfR2-1">
          <mxGeometry x="870" y="75" width="120" height="60" as="geometry" />
        </mxCell>
        <mxCell id="X4RoaQpKEemjvvecKfR2-9" style="edgeStyle=orthogonalEdgeStyle;rounded=0;orthogonalLoop=1;jettySize=auto;html=1;exitX=0.5;exitY=0;exitDx=0;exitDy=0;entryX=0.5;entryY=1;entryDx=0;entryDy=0;" edge="1" parent="X4RoaQpKEemjvvecKfR2-1" source="X4RoaQpKEemjvvecKfR2-13" target="X4RoaQpKEemjvvecKfR2-8">
          <mxGeometry relative="1" as="geometry" />
        </mxCell>
        <mxCell id="X4RoaQpKEemjvvecKfR2-10" style="edgeStyle=orthogonalEdgeStyle;rounded=0;orthogonalLoop=1;jettySize=auto;html=1;exitX=1;exitY=0.5;exitDx=0;exitDy=0;entryX=0;entryY=0.5;entryDx=0;entryDy=0;" edge="1" parent="X4RoaQpKEemjvvecKfR2-1" source="X4RoaQpKEemjvvecKfR2-13" target="X4RoaQpKEemjvvecKfR2-3">
          <mxGeometry relative="1" as="geometry" />
        </mxCell>
        <mxCell id="X4RoaQpKEemjvvecKfR2-11" style="edgeStyle=orthogonalEdgeStyle;rounded=0;orthogonalLoop=1;jettySize=auto;html=1;exitX=1;exitY=0.5;exitDx=0;exitDy=0;entryX=0;entryY=0.5;entryDx=0;entryDy=0;" edge="1" parent="X4RoaQpKEemjvvecKfR2-1" source="X4RoaQpKEemjvvecKfR2-13" target="X4RoaQpKEemjvvecKfR2-20">
          <mxGeometry relative="1" as="geometry" />
        </mxCell>
        <mxCell id="X4RoaQpKEemjvvecKfR2-12" style="edgeStyle=orthogonalEdgeStyle;rounded=0;orthogonalLoop=1;jettySize=auto;html=1;exitX=1;exitY=0.5;exitDx=0;exitDy=0;entryX=0;entryY=0.5;entryDx=0;entryDy=0;" edge="1" parent="X4RoaQpKEemjvvecKfR2-1" source="X4RoaQpKEemjvvecKfR2-13" target="X4RoaQpKEemjvvecKfR2-29">
          <mxGeometry relative="1" as="geometry" />
        </mxCell>
        <mxCell id="X4RoaQpKEemjvvecKfR2-13" value="Роутер" style="rounded=1;whiteSpace=wrap;html=1;" vertex="1" parent="X4RoaQpKEemjvvecKfR2-1">
          <mxGeometry x="870" y="425" width="120" height="40" as="geometry" />
        </mxCell>
        <mxCell id="X4RoaQpKEemjvvecKfR2-14" value="MongoDB&lt;div&gt;реплика&lt;br&gt;&lt;/div&gt;" style="shape=cylinder3;whiteSpace=wrap;html=1;boundedLbl=1;backgroundOutline=1;size=15;" vertex="1" parent="X4RoaQpKEemjvvecKfR2-1">
          <mxGeometry x="1180" y="240" width="60" height="80" as="geometry" />
        </mxCell>
        <mxCell id="X4RoaQpKEemjvvecKfR2-15" value="shard-1-1" style="text;html=1;align=center;verticalAlign=middle;resizable=0;points=[];autosize=1;strokeColor=none;fillColor=none;" vertex="1" parent="X4RoaQpKEemjvvecKfR2-1">
          <mxGeometry x="1175" y="320" width="70" height="30" as="geometry" />
        </mxCell>
        <mxCell id="X4RoaQpKEemjvvecKfR2-16" value="MongoDB&lt;div&gt;реплика&lt;br&gt;&lt;/div&gt;" style="shape=cylinder3;whiteSpace=wrap;html=1;boundedLbl=1;backgroundOutline=1;size=15;" vertex="1" parent="X4RoaQpKEemjvvecKfR2-1">
          <mxGeometry x="1280" y="240" width="60" height="80" as="geometry" />
        </mxCell>
        <mxCell id="X4RoaQpKEemjvvecKfR2-17" value="shard-1-2" style="text;html=1;align=center;verticalAlign=middle;resizable=0;points=[];autosize=1;strokeColor=none;fillColor=none;" vertex="1" parent="X4RoaQpKEemjvvecKfR2-1">
          <mxGeometry x="1275" y="320" width="70" height="30" as="geometry" />
        </mxCell>
        <mxCell id="X4RoaQpKEemjvvecKfR2-18" value="Шард 1" style="text;html=1;align=center;verticalAlign=middle;resizable=0;points=[];autosize=1;strokeColor=none;fillColor=none;" vertex="1" parent="X4RoaQpKEemjvvecKfR2-1">
          <mxGeometry x="1040" y="200" width="70" height="30" as="geometry" />
        </mxCell>
        <mxCell id="X4RoaQpKEemjvvecKfR2-19" style="edgeStyle=orthogonalEdgeStyle;rounded=0;orthogonalLoop=1;jettySize=auto;html=1;exitX=1;exitY=0.5;exitDx=0;exitDy=0;entryX=1;entryY=0.5;entryDx=0;entryDy=0;" edge="1" parent="X4RoaQpKEemjvvecKfR2-1" source="X4RoaQpKEemjvvecKfR2-20" target="X4RoaQpKEemjvvecKfR2-8">
          <mxGeometry relative="1" as="geometry">
            <mxPoint x="1000" y="175.00000000000023" as="targetPoint" />
            <Array as="points">
              <mxPoint x="1420" y="445" />
              <mxPoint x="1420" y="105" />
            </Array>
          </mxGeometry>
        </mxCell>
        <mxCell id="X4RoaQpKEemjvvecKfR2-20" value="" style="rounded=0;whiteSpace=wrap;html=1;" vertex="1" parent="X4RoaQpKEemjvvecKfR2-1">
          <mxGeometry x="1040" y="370" width="340" height="150" as="geometry" />
        </mxCell>
        <mxCell id="X4RoaQpKEemjvvecKfR2-21" value="MongoDB" style="shape=cylinder3;whiteSpace=wrap;html=1;boundedLbl=1;backgroundOutline=1;size=15;" vertex="1" parent="X4RoaQpKEemjvvecKfR2-1">
          <mxGeometry x="1080" y="410" width="60" height="80" as="geometry" />
        </mxCell>
        <mxCell id="X4RoaQpKEemjvvecKfR2-22" value="shard-2" style="text;html=1;align=center;verticalAlign=middle;resizable=0;points=[];autosize=1;strokeColor=none;fillColor=none;" vertex="1" parent="X4RoaQpKEemjvvecKfR2-1">
          <mxGeometry x="1080" y="490" width="60" height="30" as="geometry" />
        </mxCell>
        <mxCell id="X4RoaQpKEemjvvecKfR2-23" value="MongoDB&lt;div&gt;реплика&lt;/div&gt;" style="shape=cylinder3;whiteSpace=wrap;html=1;boundedLbl=1;backgroundOutline=1;size=15;" vertex="1" parent="X4RoaQpKEemjvvecKfR2-1">
          <mxGeometry x="1180" y="410" width="60" height="80" as="geometry" />
        </mxCell>
        <mxCell id="X4RoaQpKEemjvvecKfR2-24" value="shard-2-1" style="text;html=1;align=center;verticalAlign=middle;resizable=0;points=[];autosize=1;strokeColor=none;fillColor=none;" vertex="1" parent="X4RoaQpKEemjvvecKfR2-1">
          <mxGeometry x="1175" y="490" width="70" height="30" as="geometry" />
        </mxCell>
        <mxCell id="X4RoaQpKEemjvvecKfR2-25" value="MongoDB&lt;div&gt;реплика&lt;br&gt;&lt;/div&gt;" style="shape=cylinder3;whiteSpace=wrap;html=1;boundedLbl=1;backgroundOutline=1;size=15;" vertex="1" parent="X4RoaQpKEemjvvecKfR2-1">
          <mxGeometry x="1280" y="410" width="60" height="80" as="geometry" />
        </mxCell>
        <mxCell id="X4RoaQpKEemjvvecKfR2-26" value="shard-2-2" style="text;html=1;align=center;verticalAlign=middle;resizable=0;points=[];autosize=1;strokeColor=none;fillColor=none;" vertex="1" parent="X4RoaQpKEemjvvecKfR2-1">
          <mxGeometry x="1275" y="490" width="70" height="30" as="geometry" />
        </mxCell>
        <mxCell id="X4RoaQpKEemjvvecKfR2-27" value="Шард 2" style="text;html=1;align=center;verticalAlign=middle;resizable=0;points=[];autosize=1;strokeColor=none;fillColor=none;" vertex="1" parent="X4RoaQpKEemjvvecKfR2-1">
          <mxGeometry x="1040" y="370" width="70" height="30" as="geometry" />
        </mxCell>
        <mxCell id="X4RoaQpKEemjvvecKfR2-28" style="edgeStyle=orthogonalEdgeStyle;rounded=0;orthogonalLoop=1;jettySize=auto;html=1;exitX=1;exitY=0.5;exitDx=0;exitDy=0;entryX=1;entryY=0.5;entryDx=0;entryDy=0;" edge="1" parent="X4RoaQpKEemjvvecKfR2-1" source="X4RoaQpKEemjvvecKfR2-29" target="X4RoaQpKEemjvvecKfR2-8">
          <mxGeometry relative="1" as="geometry">
            <mxPoint x="980" y="155" as="targetPoint" />
            <Array as="points">
              <mxPoint x="1440" y="615" />
              <mxPoint x="1440" y="105" />
            </Array>
          </mxGeometry>
        </mxCell>
        <mxCell id="X4RoaQpKEemjvvecKfR2-29" value="" style="rounded=0;whiteSpace=wrap;html=1;" vertex="1" parent="X4RoaQpKEemjvvecKfR2-1">
          <mxGeometry x="1040" y="540" width="340" height="150" as="geometry" />
        </mxCell>
        <mxCell id="X4RoaQpKEemjvvecKfR2-30" value="MongoDB" style="shape=cylinder3;whiteSpace=wrap;html=1;boundedLbl=1;backgroundOutline=1;size=15;" vertex="1" parent="X4RoaQpKEemjvvecKfR2-1">
          <mxGeometry x="1080" y="580" width="60" height="80" as="geometry" />
        </mxCell>
        <mxCell id="X4RoaQpKEemjvvecKfR2-31" value="shard-3" style="text;html=1;align=center;verticalAlign=middle;resizable=0;points=[];autosize=1;strokeColor=none;fillColor=none;" vertex="1" parent="X4RoaQpKEemjvvecKfR2-1">
          <mxGeometry x="1080" y="660" width="60" height="30" as="geometry" />
        </mxCell>
        <mxCell id="X4RoaQpKEemjvvecKfR2-32" value="MongoDB&lt;div&gt;реплика&lt;br&gt;&lt;/div&gt;" style="shape=cylinder3;whiteSpace=wrap;html=1;boundedLbl=1;backgroundOutline=1;size=15;" vertex="1" parent="X4RoaQpKEemjvvecKfR2-1">
          <mxGeometry x="1180" y="580" width="60" height="80" as="geometry" />
        </mxCell>
        <mxCell id="X4RoaQpKEemjvvecKfR2-33" value="shard-3-1" style="text;html=1;align=center;verticalAlign=middle;resizable=0;points=[];autosize=1;strokeColor=none;fillColor=none;" vertex="1" parent="X4RoaQpKEemjvvecKfR2-1">
          <mxGeometry x="1175" y="660" width="70" height="30" as="geometry" />
        </mxCell>
        <mxCell id="X4RoaQpKEemjvvecKfR2-34" value="MongoDB&lt;div&gt;реплика&lt;br&gt;&lt;/div&gt;" style="shape=cylinder3;whiteSpace=wrap;html=1;boundedLbl=1;backgroundOutline=1;size=15;" vertex="1" parent="X4RoaQpKEemjvvecKfR2-1">
          <mxGeometry x="1280" y="580" width="60" height="80" as="geometry" />
        </mxCell>
        <mxCell id="X4RoaQpKEemjvvecKfR2-35" value="shard-3-2" style="text;html=1;align=center;verticalAlign=middle;resizable=0;points=[];autosize=1;strokeColor=none;fillColor=none;" vertex="1" parent="X4RoaQpKEemjvvecKfR2-1">
          <mxGeometry x="1275" y="660" width="70" height="30" as="geometry" />
        </mxCell>
        <mxCell id="X4RoaQpKEemjvvecKfR2-36" value="Шард 3" style="text;html=1;align=center;verticalAlign=middle;resizable=0;points=[];autosize=1;strokeColor=none;fillColor=none;" vertex="1" parent="X4RoaQpKEemjvvecKfR2-1">
          <mxGeometry x="1040" y="540" width="70" height="30" as="geometry" />
        </mxCell>
        <mxCell id="X4RoaQpKEemjvvecKfR2-37" style="edgeStyle=orthogonalEdgeStyle;rounded=0;orthogonalLoop=1;jettySize=auto;html=1;exitX=1;exitY=0.5;exitDx=0;exitDy=0;exitPerimeter=0;entryX=0;entryY=0.5;entryDx=0;entryDy=0;entryPerimeter=0;endArrow=none;endFill=0;" edge="1" parent="X4RoaQpKEemjvvecKfR2-1" source="X4RoaQpKEemjvvecKfR2-6" target="X4RoaQpKEemjvvecKfR2-14">
          <mxGeometry relative="1" as="geometry" />
        </mxCell>
        <mxCell id="X4RoaQpKEemjvvecKfR2-38" style="edgeStyle=orthogonalEdgeStyle;rounded=0;orthogonalLoop=1;jettySize=auto;html=1;exitX=1;exitY=0.5;exitDx=0;exitDy=0;exitPerimeter=0;entryX=0;entryY=0.5;entryDx=0;entryDy=0;entryPerimeter=0;endArrow=none;endFill=0;" edge="1" parent="X4RoaQpKEemjvvecKfR2-1" source="X4RoaQpKEemjvvecKfR2-14" target="X4RoaQpKEemjvvecKfR2-16">
          <mxGeometry relative="1" as="geometry">
            <mxPoint x="1150" y="290" as="sourcePoint" />
            <mxPoint x="1190" y="290" as="targetPoint" />
          </mxGeometry>
        </mxCell>
        <mxCell id="X4RoaQpKEemjvvecKfR2-39" style="edgeStyle=orthogonalEdgeStyle;rounded=0;orthogonalLoop=1;jettySize=auto;html=1;exitX=1;exitY=0.5;exitDx=0;exitDy=0;exitPerimeter=0;entryX=0;entryY=0.5;entryDx=0;entryDy=0;entryPerimeter=0;endArrow=none;endFill=0;" edge="1" parent="X4RoaQpKEemjvvecKfR2-1" source="X4RoaQpKEemjvvecKfR2-23" target="X4RoaQpKEemjvvecKfR2-25">
          <mxGeometry relative="1" as="geometry">
            <mxPoint x="1250" y="290" as="sourcePoint" />
            <mxPoint x="1290" y="290" as="targetPoint" />
          </mxGeometry>
        </mxCell>
        <mxCell id="X4RoaQpKEemjvvecKfR2-40" style="edgeStyle=orthogonalEdgeStyle;rounded=0;orthogonalLoop=1;jettySize=auto;html=1;exitX=1;exitY=0.5;exitDx=0;exitDy=0;exitPerimeter=0;entryX=0;entryY=0.5;entryDx=0;entryDy=0;entryPerimeter=0;endArrow=none;endFill=0;" edge="1" parent="X4RoaQpKEemjvvecKfR2-1" source="X4RoaQpKEemjvvecKfR2-21" target="X4RoaQpKEemjvvecKfR2-23">
          <mxGeometry relative="1" as="geometry">
            <mxPoint x="1250" y="460" as="sourcePoint" />
            <mxPoint x="1290" y="460" as="targetPoint" />
          </mxGeometry>
        </mxCell>
        <mxCell id="X4RoaQpKEemjvvecKfR2-41" style="edgeStyle=orthogonalEdgeStyle;rounded=0;orthogonalLoop=1;jettySize=auto;html=1;exitX=1;exitY=0.5;exitDx=0;exitDy=0;exitPerimeter=0;entryX=0;entryY=0.5;entryDx=0;entryDy=0;entryPerimeter=0;endArrow=none;endFill=0;" edge="1" parent="X4RoaQpKEemjvvecKfR2-1" source="X4RoaQpKEemjvvecKfR2-30" target="X4RoaQpKEemjvvecKfR2-32">
          <mxGeometry relative="1" as="geometry">
            <mxPoint x="1150" y="460" as="sourcePoint" />
            <mxPoint x="1190" y="460" as="targetPoint" />
          </mxGeometry>
        </mxCell>
        <mxCell id="X4RoaQpKEemjvvecKfR2-42" style="edgeStyle=orthogonalEdgeStyle;rounded=0;orthogonalLoop=1;jettySize=auto;html=1;exitX=1;exitY=0.5;exitDx=0;exitDy=0;exitPerimeter=0;entryX=0;entryY=0.5;entryDx=0;entryDy=0;entryPerimeter=0;endArrow=none;endFill=0;" edge="1" parent="X4RoaQpKEemjvvecKfR2-1" source="X4RoaQpKEemjvvecKfR2-32" target="X4RoaQpKEemjvvecKfR2-34">
          <mxGeometry relative="1" as="geometry">
            <mxPoint x="1150" y="630" as="sourcePoint" />
            <mxPoint x="1190" y="630" as="targetPoint" />
          </mxGeometry>
        </mxCell>
        <mxCell id="X4RoaQpKEemjvvecKfR2-43" style="edgeStyle=orthogonalEdgeStyle;rounded=0;orthogonalLoop=1;jettySize=auto;html=1;exitX=0;exitY=0.5;exitDx=0;exitDy=0;exitPerimeter=0;entryX=1;entryY=0.5;entryDx=0;entryDy=0;entryPerimeter=0;endArrow=none;endFill=0;" edge="1" parent="X4RoaQpKEemjvvecKfR2-1" source="X4RoaQpKEemjvvecKfR2-30" target="X4RoaQpKEemjvvecKfR2-34">
          <mxGeometry relative="1" as="geometry">
            <mxPoint x="1250" y="630" as="sourcePoint" />
            <mxPoint x="1290" y="630" as="targetPoint" />
            <Array as="points">
              <mxPoint x="1060" y="620" />
              <mxPoint x="1060" y="575" />
              <mxPoint x="1360" y="575" />
              <mxPoint x="1360" y="620" />
            </Array>
          </mxGeometry>
        </mxCell>
        <mxCell id="X4RoaQpKEemjvvecKfR2-44" style="edgeStyle=orthogonalEdgeStyle;rounded=0;orthogonalLoop=1;jettySize=auto;html=1;exitX=0;exitY=0.5;exitDx=0;exitDy=0;exitPerimeter=0;entryX=1;entryY=0.5;entryDx=0;entryDy=0;entryPerimeter=0;endArrow=none;endFill=0;" edge="1" parent="X4RoaQpKEemjvvecKfR2-1" source="X4RoaQpKEemjvvecKfR2-21" target="X4RoaQpKEemjvvecKfR2-25">
          <mxGeometry relative="1" as="geometry">
            <mxPoint x="1090" y="630" as="sourcePoint" />
            <mxPoint x="1350" y="630" as="targetPoint" />
            <Array as="points">
              <mxPoint x="1060" y="450" />
              <mxPoint x="1060" y="405" />
              <mxPoint x="1360" y="405" />
              <mxPoint x="1360" y="450" />
            </Array>
          </mxGeometry>
        </mxCell>
        <mxCell id="X4RoaQpKEemjvvecKfR2-45" style="edgeStyle=orthogonalEdgeStyle;rounded=0;orthogonalLoop=1;jettySize=auto;html=1;exitX=0;exitY=0.5;exitDx=0;exitDy=0;exitPerimeter=0;entryX=1;entryY=0.5;entryDx=0;entryDy=0;entryPerimeter=0;endArrow=none;endFill=0;" edge="1" parent="X4RoaQpKEemjvvecKfR2-1" source="X4RoaQpKEemjvvecKfR2-6" target="X4RoaQpKEemjvvecKfR2-16">
          <mxGeometry relative="1" as="geometry">
            <mxPoint x="1090" y="460" as="sourcePoint" />
            <mxPoint x="1350" y="460" as="targetPoint" />
            <Array as="points">
              <mxPoint x="1060" y="280" />
              <mxPoint x="1060" y="235" />
              <mxPoint x="1360" y="235" />
              <mxPoint x="1360" y="280" />
            </Array>
          </mxGeometry>
        </mxCell>
        <mxCell id="WXCaOLnDMrgFpI3_JhB8-3" style="edgeStyle=orthogonalEdgeStyle;rounded=0;orthogonalLoop=1;jettySize=auto;html=1;exitX=0.5;exitY=0.5;exitDx=0;exitDy=0;exitPerimeter=0;" edge="1" parent="X4RoaQpKEemjvvecKfR2-1" source="WXCaOLnDMrgFpI3_JhB8-0" target="WXCaOLnDMrgFpI3_JhB8-2">
          <mxGeometry relative="1" as="geometry" />
        </mxCell>
        <mxCell id="WXCaOLnDMrgFpI3_JhB8-0" value="User" style="shape=umlActor;verticalLabelPosition=bottom;verticalAlign=top;html=1;outlineConnect=0;" vertex="1" parent="X4RoaQpKEemjvvecKfR2-1">
          <mxGeometry x="60" y="415" width="30" height="60" as="geometry" />
        </mxCell>
        <mxCell id="WXCaOLnDMrgFpI3_JhB8-23" style="edgeStyle=orthogonalEdgeStyle;rounded=0;orthogonalLoop=1;jettySize=auto;html=1;exitX=1;exitY=0.5;exitDx=0;exitDy=0;entryX=0;entryY=0.5;entryDx=0;entryDy=0;" edge="1" parent="X4RoaQpKEemjvvecKfR2-1" source="WXCaOLnDMrgFpI3_JhB8-2" target="WXCaOLnDMrgFpI3_JhB8-4">
          <mxGeometry relative="1" as="geometry" />
        </mxCell>
        <mxCell id="WXCaOLnDMrgFpI3_JhB8-2" value="Frontend" style="rounded=1;whiteSpace=wrap;html=1;" vertex="1" parent="X4RoaQpKEemjvvecKfR2-1">
          <mxGeometry x="150" y="415" width="120" height="60" as="geometry" />
        </mxCell>
        <mxCell id="WXCaOLnDMrgFpI3_JhB8-19" style="edgeStyle=orthogonalEdgeStyle;rounded=0;orthogonalLoop=1;jettySize=auto;html=1;exitX=1;exitY=0.5;exitDx=0;exitDy=0;entryX=0;entryY=0.5;entryDx=0;entryDy=0;" edge="1" parent="X4RoaQpKEemjvvecKfR2-1" source="WXCaOLnDMrgFpI3_JhB8-4" target="X4RoaQpKEemjvvecKfR2-5">
          <mxGeometry relative="1" as="geometry" />
        </mxCell>
        <mxCell id="WXCaOLnDMrgFpI3_JhB8-21" style="edgeStyle=orthogonalEdgeStyle;rounded=0;orthogonalLoop=1;jettySize=auto;html=1;exitX=1;exitY=0.5;exitDx=0;exitDy=0;entryX=0;entryY=0.5;entryDx=0;entryDy=0;" edge="1" parent="X4RoaQpKEemjvvecKfR2-1" source="WXCaOLnDMrgFpI3_JhB8-4" target="WXCaOLnDMrgFpI3_JhB8-9">
          <mxGeometry relative="1" as="geometry" />
        </mxCell>
        <mxCell id="WXCaOLnDMrgFpI3_JhB8-22" style="edgeStyle=orthogonalEdgeStyle;rounded=0;orthogonalLoop=1;jettySize=auto;html=1;exitX=1;exitY=0.5;exitDx=0;exitDy=0;entryX=0;entryY=0.5;entryDx=0;entryDy=0;" edge="1" parent="X4RoaQpKEemjvvecKfR2-1" source="WXCaOLnDMrgFpI3_JhB8-4" target="WXCaOLnDMrgFpI3_JhB8-12">
          <mxGeometry relative="1" as="geometry" />
        </mxCell>
        <mxCell id="WXCaOLnDMrgFpI3_JhB8-4" value="APISIX Gateway" style="rounded=1;whiteSpace=wrap;html=1;" vertex="1" parent="X4RoaQpKEemjvvecKfR2-1">
          <mxGeometry x="320" y="415" width="120" height="60" as="geometry" />
        </mxCell>
        <mxCell id="WXCaOLnDMrgFpI3_JhB8-7" style="edgeStyle=orthogonalEdgeStyle;rounded=0;orthogonalLoop=1;jettySize=auto;html=1;exitX=0.5;exitY=0;exitDx=0;exitDy=0;entryX=0.5;entryY=1;entryDx=0;entryDy=0;" edge="1" parent="X4RoaQpKEemjvvecKfR2-1" source="WXCaOLnDMrgFpI3_JhB8-5" target="WXCaOLnDMrgFpI3_JhB8-6">
          <mxGeometry relative="1" as="geometry" />
        </mxCell>
        <mxCell id="WXCaOLnDMrgFpI3_JhB8-8" value="Получить&amp;nbsp;&lt;div&gt;список&amp;nbsp;&lt;/div&gt;&lt;div&gt;сервисов&lt;/div&gt;" style="edgeLabel;html=1;align=center;verticalAlign=middle;resizable=0;points=[];" vertex="1" connectable="0" parent="WXCaOLnDMrgFpI3_JhB8-7">
          <mxGeometry x="-0.2" y="-1" relative="1" as="geometry">
            <mxPoint as="offset" />
          </mxGeometry>
        </mxCell>
        <mxCell id="WXCaOLnDMrgFpI3_JhB8-5" value="consul_kv" style="rounded=1;whiteSpace=wrap;html=1;" vertex="1" parent="X4RoaQpKEemjvvecKfR2-1">
          <mxGeometry x="350" y="385" width="60" height="40" as="geometry" />
        </mxCell>
        <mxCell id="WXCaOLnDMrgFpI3_JhB8-6" value="Consul" style="rounded=1;whiteSpace=wrap;html=1;" vertex="1" parent="X4RoaQpKEemjvvecKfR2-1">
          <mxGeometry x="320" y="185" width="120" height="60" as="geometry" />
        </mxCell>
        <mxCell id="WXCaOLnDMrgFpI3_JhB8-24" style="edgeStyle=orthogonalEdgeStyle;rounded=0;orthogonalLoop=1;jettySize=auto;html=1;exitX=1;exitY=0.5;exitDx=0;exitDy=0;entryX=0;entryY=0.5;entryDx=0;entryDy=0;" edge="1" parent="X4RoaQpKEemjvvecKfR2-1" source="WXCaOLnDMrgFpI3_JhB8-9" target="X4RoaQpKEemjvvecKfR2-13">
          <mxGeometry relative="1" as="geometry">
            <mxPoint x="830" y="445.0000000000002" as="targetPoint" />
          </mxGeometry>
        </mxCell>
        <mxCell id="WXCaOLnDMrgFpI3_JhB8-29" style="edgeStyle=orthogonalEdgeStyle;rounded=0;orthogonalLoop=1;jettySize=auto;html=1;exitX=1;exitY=0.25;exitDx=0;exitDy=0;entryX=1;entryY=0.5;entryDx=0;entryDy=0;fillColor=#ffe6cc;strokeColor=#d79b00;" edge="1" parent="X4RoaQpKEemjvvecKfR2-1" source="WXCaOLnDMrgFpI3_JhB8-9" target="WXCaOLnDMrgFpI3_JhB8-6">
          <mxGeometry relative="1" as="geometry">
            <Array as="points">
              <mxPoint x="770" y="430" />
              <mxPoint x="770" y="215" />
            </Array>
          </mxGeometry>
        </mxCell>
        <mxCell id="WXCaOLnDMrgFpI3_JhB8-30" value="Регистрация" style="edgeLabel;html=1;align=center;verticalAlign=middle;resizable=0;points=[];" vertex="1" connectable="0" parent="WXCaOLnDMrgFpI3_JhB8-29">
          <mxGeometry x="0.3466" y="-2" relative="1" as="geometry">
            <mxPoint x="126" y="52" as="offset" />
          </mxGeometry>
        </mxCell>
        <mxCell id="WXCaOLnDMrgFpI3_JhB8-9" value="pymongo-api" style="rounded=1;whiteSpace=wrap;html=1;" vertex="1" parent="X4RoaQpKEemjvvecKfR2-1">
          <mxGeometry x="540" y="415" width="120" height="60" as="geometry" />
        </mxCell>
        <mxCell id="WXCaOLnDMrgFpI3_JhB8-26" style="edgeStyle=orthogonalEdgeStyle;rounded=0;orthogonalLoop=1;jettySize=auto;html=1;exitX=1;exitY=0.5;exitDx=0;exitDy=0;entryX=0;entryY=0.5;entryDx=0;entryDy=0;" edge="1" parent="X4RoaQpKEemjvvecKfR2-1" source="WXCaOLnDMrgFpI3_JhB8-12" target="X4RoaQpKEemjvvecKfR2-13">
          <mxGeometry relative="1" as="geometry">
            <mxPoint x="830" y="445" as="targetPoint" />
            <Array as="points">
              <mxPoint x="730" y="585" />
              <mxPoint x="730" y="445" />
            </Array>
          </mxGeometry>
        </mxCell>
        <mxCell id="WXCaOLnDMrgFpI3_JhB8-55" style="edgeStyle=orthogonalEdgeStyle;rounded=0;orthogonalLoop=1;jettySize=auto;html=1;exitX=0.5;exitY=1;exitDx=0;exitDy=0;entryX=0.5;entryY=0;entryDx=0;entryDy=0;fillColor=#e1d5e7;strokeColor=#9673a6;" edge="1" parent="X4RoaQpKEemjvvecKfR2-1" source="WXCaOLnDMrgFpI3_JhB8-12" target="WXCaOLnDMrgFpI3_JhB8-35">
          <mxGeometry relative="1" as="geometry" />
        </mxCell>
        <mxCell id="WXCaOLnDMrgFpI3_JhB8-12" value="pymongo-api" style="rounded=1;whiteSpace=wrap;html=1;" vertex="1" parent="X4RoaQpKEemjvvecKfR2-1">
          <mxGeometry x="540" y="555" width="120" height="60" as="geometry" />
        </mxCell>
        <mxCell id="WXCaOLnDMrgFpI3_JhB8-33" style="edgeStyle=orthogonalEdgeStyle;rounded=0;orthogonalLoop=1;jettySize=auto;html=1;exitX=1;exitY=0.25;exitDx=0;exitDy=0;entryX=1;entryY=0.5;entryDx=0;entryDy=0;fillColor=#ffe6cc;strokeColor=#d79b00;" edge="1" parent="X4RoaQpKEemjvvecKfR2-1" source="WXCaOLnDMrgFpI3_JhB8-12" target="WXCaOLnDMrgFpI3_JhB8-6">
          <mxGeometry relative="1" as="geometry">
            <mxPoint x="700" y="440" as="sourcePoint" />
            <mxPoint x="450" y="270" as="targetPoint" />
            <Array as="points">
              <mxPoint x="810" y="570" />
              <mxPoint x="810" y="215" />
            </Array>
          </mxGeometry>
        </mxCell>
        <mxCell id="WXCaOLnDMrgFpI3_JhB8-34" value="Регистрация" style="edgeLabel;html=1;align=center;verticalAlign=middle;resizable=0;points=[];" vertex="1" connectable="0" parent="WXCaOLnDMrgFpI3_JhB8-33">
          <mxGeometry x="0.3466" y="-2" relative="1" as="geometry">
            <mxPoint x="94" y="277" as="offset" />
          </mxGeometry>
        </mxCell>
        <mxCell id="WXCaOLnDMrgFpI3_JhB8-35" value="" style="rounded=0;whiteSpace=wrap;html=1;" vertex="1" parent="X4RoaQpKEemjvvecKfR2-1">
          <mxGeometry x="445" y="685" width="310" height="240" as="geometry" />
        </mxCell>
        <mxCell id="X4RoaQpKEemjvvecKfR2-46" value="redis&lt;div&gt;Master&lt;/div&gt;" style="shape=cylinder3;whiteSpace=wrap;html=1;boundedLbl=1;backgroundOutline=1;size=15;" vertex="1" parent="X4RoaQpKEemjvvecKfR2-1">
          <mxGeometry x="465" y="724" width="70" height="70" as="geometry" />
        </mxCell>
        <mxCell id="WXCaOLnDMrgFpI3_JhB8-36" value="redis&lt;div&gt;Slave&lt;/div&gt;" style="shape=cylinder3;whiteSpace=wrap;html=1;boundedLbl=1;backgroundOutline=1;size=15;" vertex="1" parent="X4RoaQpKEemjvvecKfR2-1">
          <mxGeometry x="465" y="844" width="70" height="70" as="geometry" />
        </mxCell>
        <mxCell id="WXCaOLnDMrgFpI3_JhB8-39" value="Redis Cluster" style="text;html=1;align=center;verticalAlign=middle;resizable=0;points=[];autosize=1;strokeColor=none;fillColor=none;" vertex="1" parent="X4RoaQpKEemjvvecKfR2-1">
          <mxGeometry x="445" y="685" width="100" height="30" as="geometry" />
        </mxCell>
        <mxCell id="WXCaOLnDMrgFpI3_JhB8-40" style="edgeStyle=orthogonalEdgeStyle;rounded=0;orthogonalLoop=1;jettySize=auto;html=1;exitX=0.5;exitY=1;exitDx=0;exitDy=0;exitPerimeter=0;entryX=0.5;entryY=0;entryDx=0;entryDy=0;entryPerimeter=0;" edge="1" parent="X4RoaQpKEemjvvecKfR2-1" source="X4RoaQpKEemjvvecKfR2-46" target="WXCaOLnDMrgFpI3_JhB8-36">
          <mxGeometry relative="1" as="geometry" />
        </mxCell>
        <mxCell id="WXCaOLnDMrgFpI3_JhB8-41" value="redis&lt;div&gt;Master&lt;/div&gt;" style="shape=cylinder3;whiteSpace=wrap;html=1;boundedLbl=1;backgroundOutline=1;size=15;" vertex="1" parent="X4RoaQpKEemjvvecKfR2-1">
          <mxGeometry x="565" y="724" width="70" height="70" as="geometry" />
        </mxCell>
        <mxCell id="WXCaOLnDMrgFpI3_JhB8-42" value="redis&lt;div&gt;Slave&lt;/div&gt;" style="shape=cylinder3;whiteSpace=wrap;html=1;boundedLbl=1;backgroundOutline=1;size=15;" vertex="1" parent="X4RoaQpKEemjvvecKfR2-1">
          <mxGeometry x="565" y="844" width="70" height="70" as="geometry" />
        </mxCell>
        <mxCell id="WXCaOLnDMrgFpI3_JhB8-43" style="edgeStyle=orthogonalEdgeStyle;rounded=0;orthogonalLoop=1;jettySize=auto;html=1;exitX=0.5;exitY=1;exitDx=0;exitDy=0;exitPerimeter=0;entryX=0.5;entryY=0;entryDx=0;entryDy=0;entryPerimeter=0;" edge="1" source="WXCaOLnDMrgFpI3_JhB8-41" target="WXCaOLnDMrgFpI3_JhB8-42" parent="X4RoaQpKEemjvvecKfR2-1">
          <mxGeometry relative="1" as="geometry" />
        </mxCell>
        <mxCell id="WXCaOLnDMrgFpI3_JhB8-44" value="redis&lt;div&gt;Master&lt;/div&gt;" style="shape=cylinder3;whiteSpace=wrap;html=1;boundedLbl=1;backgroundOutline=1;size=15;" vertex="1" parent="X4RoaQpKEemjvvecKfR2-1">
          <mxGeometry x="665" y="724" width="70" height="70" as="geometry" />
        </mxCell>
        <mxCell id="WXCaOLnDMrgFpI3_JhB8-45" value="redis&lt;div&gt;Slave&lt;/div&gt;" style="shape=cylinder3;whiteSpace=wrap;html=1;boundedLbl=1;backgroundOutline=1;size=15;" vertex="1" parent="X4RoaQpKEemjvvecKfR2-1">
          <mxGeometry x="665" y="844" width="70" height="70" as="geometry" />
        </mxCell>
        <mxCell id="WXCaOLnDMrgFpI3_JhB8-46" style="edgeStyle=orthogonalEdgeStyle;rounded=0;orthogonalLoop=1;jettySize=auto;html=1;exitX=0.5;exitY=1;exitDx=0;exitDy=0;exitPerimeter=0;entryX=0.5;entryY=0;entryDx=0;entryDy=0;entryPerimeter=0;" edge="1" source="WXCaOLnDMrgFpI3_JhB8-44" target="WXCaOLnDMrgFpI3_JhB8-45" parent="X4RoaQpKEemjvvecKfR2-1">
          <mxGeometry relative="1" as="geometry" />
        </mxCell>
        <mxCell id="WXCaOLnDMrgFpI3_JhB8-47" style="rounded=0;orthogonalLoop=1;jettySize=auto;html=1;exitX=0.855;exitY=1;exitDx=0;exitDy=-4.35;exitPerimeter=0;entryX=0.145;entryY=0;entryDx=0;entryDy=4.35;entryPerimeter=0;endArrow=none;endFill=0;dashed=1;" edge="1" parent="X4RoaQpKEemjvvecKfR2-1" source="X4RoaQpKEemjvvecKfR2-46" target="WXCaOLnDMrgFpI3_JhB8-42">
          <mxGeometry relative="1" as="geometry" />
        </mxCell>
        <mxCell id="WXCaOLnDMrgFpI3_JhB8-53" value="&lt;font style=&quot;font-size: 6px;&quot;&gt;gossip&lt;/font&gt;" style="edgeLabel;html=1;align=center;verticalAlign=middle;resizable=0;points=[];" vertex="1" connectable="0" parent="WXCaOLnDMrgFpI3_JhB8-47">
          <mxGeometry x="-0.1541" y="-1" relative="1" as="geometry">
            <mxPoint x="-11" y="3" as="offset" />
          </mxGeometry>
        </mxCell>
        <mxCell id="WXCaOLnDMrgFpI3_JhB8-48" style="rounded=0;orthogonalLoop=1;jettySize=auto;html=1;exitX=0.855;exitY=1;exitDx=0;exitDy=-4.35;exitPerimeter=0;entryX=0.145;entryY=0;entryDx=0;entryDy=4.35;entryPerimeter=0;endArrow=none;endFill=0;dashed=1;" edge="1" parent="X4RoaQpKEemjvvecKfR2-1" source="X4RoaQpKEemjvvecKfR2-46" target="WXCaOLnDMrgFpI3_JhB8-45">
          <mxGeometry relative="1" as="geometry">
            <mxPoint x="535" y="800" as="sourcePoint" />
            <mxPoint x="585" y="828" as="targetPoint" />
          </mxGeometry>
        </mxCell>
        <mxCell id="WXCaOLnDMrgFpI3_JhB8-49" style="rounded=0;orthogonalLoop=1;jettySize=auto;html=1;exitX=0.145;exitY=1;exitDx=0;exitDy=-4.35;exitPerimeter=0;entryX=0.855;entryY=0;entryDx=0;entryDy=4.35;entryPerimeter=0;endArrow=none;endFill=0;dashed=1;" edge="1" parent="X4RoaQpKEemjvvecKfR2-1" source="WXCaOLnDMrgFpI3_JhB8-41" target="WXCaOLnDMrgFpI3_JhB8-36">
          <mxGeometry relative="1" as="geometry">
            <mxPoint x="535" y="800" as="sourcePoint" />
            <mxPoint x="585" y="828" as="targetPoint" />
          </mxGeometry>
        </mxCell>
        <mxCell id="WXCaOLnDMrgFpI3_JhB8-50" style="rounded=0;orthogonalLoop=1;jettySize=auto;html=1;exitX=0.855;exitY=1;exitDx=0;exitDy=-4.35;exitPerimeter=0;entryX=0.145;entryY=0;entryDx=0;entryDy=4.35;entryPerimeter=0;endArrow=none;endFill=0;dashed=1;" edge="1" parent="X4RoaQpKEemjvvecKfR2-1" source="WXCaOLnDMrgFpI3_JhB8-41" target="WXCaOLnDMrgFpI3_JhB8-45">
          <mxGeometry relative="1" as="geometry">
            <mxPoint x="585" y="800" as="sourcePoint" />
            <mxPoint x="535" y="828" as="targetPoint" />
          </mxGeometry>
        </mxCell>
        <mxCell id="WXCaOLnDMrgFpI3_JhB8-51" style="rounded=0;orthogonalLoop=1;jettySize=auto;html=1;exitX=0.145;exitY=1;exitDx=0;exitDy=-4.35;exitPerimeter=0;entryX=0.855;entryY=0;entryDx=0;entryDy=4.35;entryPerimeter=0;endArrow=none;endFill=0;dashed=1;" edge="1" parent="X4RoaQpKEemjvvecKfR2-1" source="WXCaOLnDMrgFpI3_JhB8-44" target="WXCaOLnDMrgFpI3_JhB8-42">
          <mxGeometry relative="1" as="geometry">
            <mxPoint x="635" y="800" as="sourcePoint" />
            <mxPoint x="685" y="828" as="targetPoint" />
          </mxGeometry>
        </mxCell>
        <mxCell id="WXCaOLnDMrgFpI3_JhB8-52" style="rounded=0;orthogonalLoop=1;jettySize=auto;html=1;exitX=0.145;exitY=1;exitDx=0;exitDy=-4.35;exitPerimeter=0;entryX=0.855;entryY=0;entryDx=0;entryDy=4.35;entryPerimeter=0;endArrow=none;endFill=0;dashed=1;" edge="1" parent="X4RoaQpKEemjvvecKfR2-1" source="WXCaOLnDMrgFpI3_JhB8-44" target="WXCaOLnDMrgFpI3_JhB8-36">
          <mxGeometry relative="1" as="geometry">
            <mxPoint x="685" y="800" as="sourcePoint" />
            <mxPoint x="635" y="828" as="targetPoint" />
          </mxGeometry>
        </mxCell>
        <mxCell id="WXCaOLnDMrgFpI3_JhB8-56" style="edgeStyle=orthogonalEdgeStyle;rounded=0;orthogonalLoop=1;jettySize=auto;html=1;exitX=1;exitY=0.75;exitDx=0;exitDy=0;entryX=0.75;entryY=0;entryDx=0;entryDy=0;fillColor=#e1d5e7;strokeColor=#9673a6;" edge="1" parent="X4RoaQpKEemjvvecKfR2-1" source="WXCaOLnDMrgFpI3_JhB8-9" target="WXCaOLnDMrgFpI3_JhB8-35">
          <mxGeometry relative="1" as="geometry">
            <Array as="points">
              <mxPoint x="678" y="460" />
              <mxPoint x="678" y="580" />
              <mxPoint x="678" y="580" />
            </Array>
          </mxGeometry>
        </mxCell>
        <mxCell id="WXCaOLnDMrgFpI3_JhB8-57" style="edgeStyle=orthogonalEdgeStyle;rounded=0;orthogonalLoop=1;jettySize=auto;html=1;exitX=1;exitY=0.75;exitDx=0;exitDy=0;entryX=0.823;entryY=0.001;entryDx=0;entryDy=0;entryPerimeter=0;fillColor=#e1d5e7;strokeColor=#9673a6;" edge="1" parent="X4RoaQpKEemjvvecKfR2-1" source="X4RoaQpKEemjvvecKfR2-5" target="WXCaOLnDMrgFpI3_JhB8-35">
          <mxGeometry relative="1" as="geometry" />
        </mxCell>
        <mxCell id="WXCaOLnDMrgFpI3_JhB8-58" value="Кэширование" style="text;html=1;align=center;verticalAlign=middle;resizable=0;points=[];autosize=1;strokeColor=none;fillColor=none;" vertex="1" parent="X4RoaQpKEemjvvecKfR2-1">
          <mxGeometry x="605" y="645" width="100" height="30" as="geometry" />
        </mxCell>
      </root>
    </mxGraphModel>
  </diagram>
  <diagram name="Task 6 CDN" id="-TZg6Z9m065CHHPSFeOX">
    <mxGraphModel dx="1990" dy="1462" grid="1" gridSize="10" guides="1" tooltips="1" connect="1" arrows="1" fold="1" page="1" pageScale="1" pageWidth="1550" pageHeight="1000" math="0" shadow="0">
      <root>
        <mxCell id="PsOL330LeHh5zJ2AcE5B-0" />
        <mxCell id="PsOL330LeHh5zJ2AcE5B-1" parent="PsOL330LeHh5zJ2AcE5B-0" />
        <mxCell id="PsOL330LeHh5zJ2AcE5B-2" style="edgeStyle=orthogonalEdgeStyle;rounded=0;orthogonalLoop=1;jettySize=auto;html=1;exitX=1;exitY=0.5;exitDx=0;exitDy=0;entryX=1;entryY=0.5;entryDx=0;entryDy=0;" edge="1" parent="PsOL330LeHh5zJ2AcE5B-1" source="PsOL330LeHh5zJ2AcE5B-3" target="PsOL330LeHh5zJ2AcE5B-10">
          <mxGeometry relative="1" as="geometry" />
        </mxCell>
        <mxCell id="PsOL330LeHh5zJ2AcE5B-3" value="" style="rounded=0;whiteSpace=wrap;html=1;" vertex="1" parent="PsOL330LeHh5zJ2AcE5B-1">
          <mxGeometry x="1120" y="200" width="340" height="150" as="geometry" />
        </mxCell>
        <mxCell id="PsOL330LeHh5zJ2AcE5B-4" style="edgeStyle=orthogonalEdgeStyle;rounded=0;orthogonalLoop=1;jettySize=auto;html=1;exitX=1;exitY=0.5;exitDx=0;exitDy=0;entryX=0;entryY=0.5;entryDx=0;entryDy=0;" edge="1" parent="PsOL330LeHh5zJ2AcE5B-1" source="PsOL330LeHh5zJ2AcE5B-7" target="PsOL330LeHh5zJ2AcE5B-15">
          <mxGeometry relative="1" as="geometry">
            <mxPoint x="910" y="445.0000000000002" as="targetPoint" />
            <Array as="points">
              <mxPoint x="810" y="315" />
              <mxPoint x="810" y="445" />
            </Array>
          </mxGeometry>
        </mxCell>
        <mxCell id="PsOL330LeHh5zJ2AcE5B-5" style="edgeStyle=orthogonalEdgeStyle;rounded=0;orthogonalLoop=1;jettySize=auto;html=1;exitX=1;exitY=0.25;exitDx=0;exitDy=0;fillColor=#ffe6cc;strokeColor=#d79b00;entryX=1;entryY=0.5;entryDx=0;entryDy=0;" edge="1" parent="PsOL330LeHh5zJ2AcE5B-1" source="PsOL330LeHh5zJ2AcE5B-7" target="PsOL330LeHh5zJ2AcE5B-59">
          <mxGeometry relative="1" as="geometry">
            <Array as="points">
              <mxPoint x="810" y="300" />
              <mxPoint x="810" y="215" />
            </Array>
          </mxGeometry>
        </mxCell>
        <mxCell id="PsOL330LeHh5zJ2AcE5B-6" value="Регистрация" style="edgeLabel;html=1;align=center;verticalAlign=middle;resizable=0;points=[];" vertex="1" connectable="0" parent="PsOL330LeHh5zJ2AcE5B-5">
          <mxGeometry x="0.4189" y="-3" relative="1" as="geometry">
            <mxPoint x="60" y="-12" as="offset" />
          </mxGeometry>
        </mxCell>
        <mxCell id="PsOL330LeHh5zJ2AcE5B-7" value="pymongo-api" style="rounded=1;whiteSpace=wrap;html=1;" vertex="1" parent="PsOL330LeHh5zJ2AcE5B-1">
          <mxGeometry x="620" y="285" width="120" height="60" as="geometry" />
        </mxCell>
        <mxCell id="PsOL330LeHh5zJ2AcE5B-8" value="MongoDB" style="shape=cylinder3;whiteSpace=wrap;html=1;boundedLbl=1;backgroundOutline=1;size=15;" vertex="1" parent="PsOL330LeHh5zJ2AcE5B-1">
          <mxGeometry x="1160" y="240" width="60" height="80" as="geometry" />
        </mxCell>
        <mxCell id="PsOL330LeHh5zJ2AcE5B-9" value="shard-1" style="text;html=1;align=center;verticalAlign=middle;resizable=0;points=[];autosize=1;strokeColor=none;fillColor=none;" vertex="1" parent="PsOL330LeHh5zJ2AcE5B-1">
          <mxGeometry x="1160" y="320" width="60" height="30" as="geometry" />
        </mxCell>
        <mxCell id="PsOL330LeHh5zJ2AcE5B-10" value="Конфигурационный сервер" style="rounded=1;whiteSpace=wrap;html=1;" vertex="1" parent="PsOL330LeHh5zJ2AcE5B-1">
          <mxGeometry x="950" y="75" width="120" height="60" as="geometry" />
        </mxCell>
        <mxCell id="PsOL330LeHh5zJ2AcE5B-11" style="edgeStyle=orthogonalEdgeStyle;rounded=0;orthogonalLoop=1;jettySize=auto;html=1;exitX=0.5;exitY=0;exitDx=0;exitDy=0;entryX=0.5;entryY=1;entryDx=0;entryDy=0;" edge="1" parent="PsOL330LeHh5zJ2AcE5B-1" source="PsOL330LeHh5zJ2AcE5B-15" target="PsOL330LeHh5zJ2AcE5B-10">
          <mxGeometry relative="1" as="geometry" />
        </mxCell>
        <mxCell id="PsOL330LeHh5zJ2AcE5B-12" style="edgeStyle=orthogonalEdgeStyle;rounded=0;orthogonalLoop=1;jettySize=auto;html=1;exitX=1;exitY=0.5;exitDx=0;exitDy=0;entryX=0;entryY=0.5;entryDx=0;entryDy=0;" edge="1" parent="PsOL330LeHh5zJ2AcE5B-1" source="PsOL330LeHh5zJ2AcE5B-15" target="PsOL330LeHh5zJ2AcE5B-3">
          <mxGeometry relative="1" as="geometry" />
        </mxCell>
        <mxCell id="PsOL330LeHh5zJ2AcE5B-13" style="edgeStyle=orthogonalEdgeStyle;rounded=0;orthogonalLoop=1;jettySize=auto;html=1;exitX=1;exitY=0.5;exitDx=0;exitDy=0;entryX=0;entryY=0.5;entryDx=0;entryDy=0;" edge="1" parent="PsOL330LeHh5zJ2AcE5B-1" source="PsOL330LeHh5zJ2AcE5B-15" target="PsOL330LeHh5zJ2AcE5B-22">
          <mxGeometry relative="1" as="geometry" />
        </mxCell>
        <mxCell id="PsOL330LeHh5zJ2AcE5B-14" style="edgeStyle=orthogonalEdgeStyle;rounded=0;orthogonalLoop=1;jettySize=auto;html=1;exitX=1;exitY=0.5;exitDx=0;exitDy=0;entryX=0;entryY=0.5;entryDx=0;entryDy=0;" edge="1" parent="PsOL330LeHh5zJ2AcE5B-1" source="PsOL330LeHh5zJ2AcE5B-15" target="PsOL330LeHh5zJ2AcE5B-31">
          <mxGeometry relative="1" as="geometry" />
        </mxCell>
        <mxCell id="PsOL330LeHh5zJ2AcE5B-15" value="Роутер" style="rounded=1;whiteSpace=wrap;html=1;" vertex="1" parent="PsOL330LeHh5zJ2AcE5B-1">
          <mxGeometry x="950" y="425" width="120" height="40" as="geometry" />
        </mxCell>
        <mxCell id="PsOL330LeHh5zJ2AcE5B-16" value="MongoDB&lt;div&gt;реплика&lt;br&gt;&lt;/div&gt;" style="shape=cylinder3;whiteSpace=wrap;html=1;boundedLbl=1;backgroundOutline=1;size=15;" vertex="1" parent="PsOL330LeHh5zJ2AcE5B-1">
          <mxGeometry x="1260" y="240" width="60" height="80" as="geometry" />
        </mxCell>
        <mxCell id="PsOL330LeHh5zJ2AcE5B-17" value="shard-1-1" style="text;html=1;align=center;verticalAlign=middle;resizable=0;points=[];autosize=1;strokeColor=none;fillColor=none;" vertex="1" parent="PsOL330LeHh5zJ2AcE5B-1">
          <mxGeometry x="1255" y="320" width="70" height="30" as="geometry" />
        </mxCell>
        <mxCell id="PsOL330LeHh5zJ2AcE5B-18" value="MongoDB&lt;div&gt;реплика&lt;br&gt;&lt;/div&gt;" style="shape=cylinder3;whiteSpace=wrap;html=1;boundedLbl=1;backgroundOutline=1;size=15;" vertex="1" parent="PsOL330LeHh5zJ2AcE5B-1">
          <mxGeometry x="1360" y="240" width="60" height="80" as="geometry" />
        </mxCell>
        <mxCell id="PsOL330LeHh5zJ2AcE5B-19" value="shard-1-2" style="text;html=1;align=center;verticalAlign=middle;resizable=0;points=[];autosize=1;strokeColor=none;fillColor=none;" vertex="1" parent="PsOL330LeHh5zJ2AcE5B-1">
          <mxGeometry x="1355" y="320" width="70" height="30" as="geometry" />
        </mxCell>
        <mxCell id="PsOL330LeHh5zJ2AcE5B-20" value="Шард 1" style="text;html=1;align=center;verticalAlign=middle;resizable=0;points=[];autosize=1;strokeColor=none;fillColor=none;" vertex="1" parent="PsOL330LeHh5zJ2AcE5B-1">
          <mxGeometry x="1120" y="200" width="70" height="30" as="geometry" />
        </mxCell>
        <mxCell id="PsOL330LeHh5zJ2AcE5B-21" style="edgeStyle=orthogonalEdgeStyle;rounded=0;orthogonalLoop=1;jettySize=auto;html=1;exitX=1;exitY=0.5;exitDx=0;exitDy=0;entryX=1;entryY=0.5;entryDx=0;entryDy=0;" edge="1" parent="PsOL330LeHh5zJ2AcE5B-1" source="PsOL330LeHh5zJ2AcE5B-22" target="PsOL330LeHh5zJ2AcE5B-10">
          <mxGeometry relative="1" as="geometry">
            <mxPoint x="1080" y="175.00000000000023" as="targetPoint" />
            <Array as="points">
              <mxPoint x="1500" y="445" />
              <mxPoint x="1500" y="105" />
            </Array>
          </mxGeometry>
        </mxCell>
        <mxCell id="PsOL330LeHh5zJ2AcE5B-22" value="" style="rounded=0;whiteSpace=wrap;html=1;" vertex="1" parent="PsOL330LeHh5zJ2AcE5B-1">
          <mxGeometry x="1120" y="370" width="340" height="150" as="geometry" />
        </mxCell>
        <mxCell id="PsOL330LeHh5zJ2AcE5B-23" value="MongoDB" style="shape=cylinder3;whiteSpace=wrap;html=1;boundedLbl=1;backgroundOutline=1;size=15;" vertex="1" parent="PsOL330LeHh5zJ2AcE5B-1">
          <mxGeometry x="1160" y="410" width="60" height="80" as="geometry" />
        </mxCell>
        <mxCell id="PsOL330LeHh5zJ2AcE5B-24" value="shard-2" style="text;html=1;align=center;verticalAlign=middle;resizable=0;points=[];autosize=1;strokeColor=none;fillColor=none;" vertex="1" parent="PsOL330LeHh5zJ2AcE5B-1">
          <mxGeometry x="1160" y="490" width="60" height="30" as="geometry" />
        </mxCell>
        <mxCell id="PsOL330LeHh5zJ2AcE5B-25" value="MongoDB&lt;div&gt;реплика&lt;/div&gt;" style="shape=cylinder3;whiteSpace=wrap;html=1;boundedLbl=1;backgroundOutline=1;size=15;" vertex="1" parent="PsOL330LeHh5zJ2AcE5B-1">
          <mxGeometry x="1260" y="410" width="60" height="80" as="geometry" />
        </mxCell>
        <mxCell id="PsOL330LeHh5zJ2AcE5B-26" value="shard-2-1" style="text;html=1;align=center;verticalAlign=middle;resizable=0;points=[];autosize=1;strokeColor=none;fillColor=none;" vertex="1" parent="PsOL330LeHh5zJ2AcE5B-1">
          <mxGeometry x="1255" y="490" width="70" height="30" as="geometry" />
        </mxCell>
        <mxCell id="PsOL330LeHh5zJ2AcE5B-27" value="MongoDB&lt;div&gt;реплика&lt;br&gt;&lt;/div&gt;" style="shape=cylinder3;whiteSpace=wrap;html=1;boundedLbl=1;backgroundOutline=1;size=15;" vertex="1" parent="PsOL330LeHh5zJ2AcE5B-1">
          <mxGeometry x="1360" y="410" width="60" height="80" as="geometry" />
        </mxCell>
        <mxCell id="PsOL330LeHh5zJ2AcE5B-28" value="shard-2-2" style="text;html=1;align=center;verticalAlign=middle;resizable=0;points=[];autosize=1;strokeColor=none;fillColor=none;" vertex="1" parent="PsOL330LeHh5zJ2AcE5B-1">
          <mxGeometry x="1355" y="490" width="70" height="30" as="geometry" />
        </mxCell>
        <mxCell id="PsOL330LeHh5zJ2AcE5B-29" value="Шард 2" style="text;html=1;align=center;verticalAlign=middle;resizable=0;points=[];autosize=1;strokeColor=none;fillColor=none;" vertex="1" parent="PsOL330LeHh5zJ2AcE5B-1">
          <mxGeometry x="1120" y="370" width="70" height="30" as="geometry" />
        </mxCell>
        <mxCell id="PsOL330LeHh5zJ2AcE5B-30" style="edgeStyle=orthogonalEdgeStyle;rounded=0;orthogonalLoop=1;jettySize=auto;html=1;exitX=1;exitY=0.5;exitDx=0;exitDy=0;entryX=1;entryY=0.5;entryDx=0;entryDy=0;" edge="1" parent="PsOL330LeHh5zJ2AcE5B-1" source="PsOL330LeHh5zJ2AcE5B-31" target="PsOL330LeHh5zJ2AcE5B-10">
          <mxGeometry relative="1" as="geometry">
            <mxPoint x="1060" y="155" as="targetPoint" />
            <Array as="points">
              <mxPoint x="1520" y="615" />
              <mxPoint x="1520" y="105" />
            </Array>
          </mxGeometry>
        </mxCell>
        <mxCell id="PsOL330LeHh5zJ2AcE5B-31" value="" style="rounded=0;whiteSpace=wrap;html=1;" vertex="1" parent="PsOL330LeHh5zJ2AcE5B-1">
          <mxGeometry x="1120" y="540" width="340" height="150" as="geometry" />
        </mxCell>
        <mxCell id="PsOL330LeHh5zJ2AcE5B-32" value="MongoDB" style="shape=cylinder3;whiteSpace=wrap;html=1;boundedLbl=1;backgroundOutline=1;size=15;" vertex="1" parent="PsOL330LeHh5zJ2AcE5B-1">
          <mxGeometry x="1160" y="580" width="60" height="80" as="geometry" />
        </mxCell>
        <mxCell id="PsOL330LeHh5zJ2AcE5B-33" value="shard-3" style="text;html=1;align=center;verticalAlign=middle;resizable=0;points=[];autosize=1;strokeColor=none;fillColor=none;" vertex="1" parent="PsOL330LeHh5zJ2AcE5B-1">
          <mxGeometry x="1160" y="660" width="60" height="30" as="geometry" />
        </mxCell>
        <mxCell id="PsOL330LeHh5zJ2AcE5B-34" value="MongoDB&lt;div&gt;реплика&lt;br&gt;&lt;/div&gt;" style="shape=cylinder3;whiteSpace=wrap;html=1;boundedLbl=1;backgroundOutline=1;size=15;" vertex="1" parent="PsOL330LeHh5zJ2AcE5B-1">
          <mxGeometry x="1260" y="580" width="60" height="80" as="geometry" />
        </mxCell>
        <mxCell id="PsOL330LeHh5zJ2AcE5B-35" value="shard-3-1" style="text;html=1;align=center;verticalAlign=middle;resizable=0;points=[];autosize=1;strokeColor=none;fillColor=none;" vertex="1" parent="PsOL330LeHh5zJ2AcE5B-1">
          <mxGeometry x="1255" y="660" width="70" height="30" as="geometry" />
        </mxCell>
        <mxCell id="PsOL330LeHh5zJ2AcE5B-36" value="MongoDB&lt;div&gt;реплика&lt;br&gt;&lt;/div&gt;" style="shape=cylinder3;whiteSpace=wrap;html=1;boundedLbl=1;backgroundOutline=1;size=15;" vertex="1" parent="PsOL330LeHh5zJ2AcE5B-1">
          <mxGeometry x="1360" y="580" width="60" height="80" as="geometry" />
        </mxCell>
        <mxCell id="PsOL330LeHh5zJ2AcE5B-37" value="shard-3-2" style="text;html=1;align=center;verticalAlign=middle;resizable=0;points=[];autosize=1;strokeColor=none;fillColor=none;" vertex="1" parent="PsOL330LeHh5zJ2AcE5B-1">
          <mxGeometry x="1355" y="660" width="70" height="30" as="geometry" />
        </mxCell>
        <mxCell id="PsOL330LeHh5zJ2AcE5B-38" value="Шард 3" style="text;html=1;align=center;verticalAlign=middle;resizable=0;points=[];autosize=1;strokeColor=none;fillColor=none;" vertex="1" parent="PsOL330LeHh5zJ2AcE5B-1">
          <mxGeometry x="1120" y="540" width="70" height="30" as="geometry" />
        </mxCell>
        <mxCell id="PsOL330LeHh5zJ2AcE5B-39" style="edgeStyle=orthogonalEdgeStyle;rounded=0;orthogonalLoop=1;jettySize=auto;html=1;exitX=1;exitY=0.5;exitDx=0;exitDy=0;exitPerimeter=0;entryX=0;entryY=0.5;entryDx=0;entryDy=0;entryPerimeter=0;endArrow=none;endFill=0;" edge="1" parent="PsOL330LeHh5zJ2AcE5B-1" source="PsOL330LeHh5zJ2AcE5B-8" target="PsOL330LeHh5zJ2AcE5B-16">
          <mxGeometry relative="1" as="geometry" />
        </mxCell>
        <mxCell id="PsOL330LeHh5zJ2AcE5B-40" style="edgeStyle=orthogonalEdgeStyle;rounded=0;orthogonalLoop=1;jettySize=auto;html=1;exitX=1;exitY=0.5;exitDx=0;exitDy=0;exitPerimeter=0;entryX=0;entryY=0.5;entryDx=0;entryDy=0;entryPerimeter=0;endArrow=none;endFill=0;" edge="1" parent="PsOL330LeHh5zJ2AcE5B-1" source="PsOL330LeHh5zJ2AcE5B-16" target="PsOL330LeHh5zJ2AcE5B-18">
          <mxGeometry relative="1" as="geometry">
            <mxPoint x="1230" y="290" as="sourcePoint" />
            <mxPoint x="1270" y="290" as="targetPoint" />
          </mxGeometry>
        </mxCell>
        <mxCell id="PsOL330LeHh5zJ2AcE5B-41" style="edgeStyle=orthogonalEdgeStyle;rounded=0;orthogonalLoop=1;jettySize=auto;html=1;exitX=1;exitY=0.5;exitDx=0;exitDy=0;exitPerimeter=0;entryX=0;entryY=0.5;entryDx=0;entryDy=0;entryPerimeter=0;endArrow=none;endFill=0;" edge="1" parent="PsOL330LeHh5zJ2AcE5B-1" source="PsOL330LeHh5zJ2AcE5B-25" target="PsOL330LeHh5zJ2AcE5B-27">
          <mxGeometry relative="1" as="geometry">
            <mxPoint x="1330" y="290" as="sourcePoint" />
            <mxPoint x="1370" y="290" as="targetPoint" />
          </mxGeometry>
        </mxCell>
        <mxCell id="PsOL330LeHh5zJ2AcE5B-42" style="edgeStyle=orthogonalEdgeStyle;rounded=0;orthogonalLoop=1;jettySize=auto;html=1;exitX=1;exitY=0.5;exitDx=0;exitDy=0;exitPerimeter=0;entryX=0;entryY=0.5;entryDx=0;entryDy=0;entryPerimeter=0;endArrow=none;endFill=0;" edge="1" parent="PsOL330LeHh5zJ2AcE5B-1" source="PsOL330LeHh5zJ2AcE5B-23" target="PsOL330LeHh5zJ2AcE5B-25">
          <mxGeometry relative="1" as="geometry">
            <mxPoint x="1330" y="460" as="sourcePoint" />
            <mxPoint x="1370" y="460" as="targetPoint" />
          </mxGeometry>
        </mxCell>
        <mxCell id="PsOL330LeHh5zJ2AcE5B-43" style="edgeStyle=orthogonalEdgeStyle;rounded=0;orthogonalLoop=1;jettySize=auto;html=1;exitX=1;exitY=0.5;exitDx=0;exitDy=0;exitPerimeter=0;entryX=0;entryY=0.5;entryDx=0;entryDy=0;entryPerimeter=0;endArrow=none;endFill=0;" edge="1" parent="PsOL330LeHh5zJ2AcE5B-1" source="PsOL330LeHh5zJ2AcE5B-32" target="PsOL330LeHh5zJ2AcE5B-34">
          <mxGeometry relative="1" as="geometry">
            <mxPoint x="1230" y="460" as="sourcePoint" />
            <mxPoint x="1270" y="460" as="targetPoint" />
          </mxGeometry>
        </mxCell>
        <mxCell id="PsOL330LeHh5zJ2AcE5B-44" style="edgeStyle=orthogonalEdgeStyle;rounded=0;orthogonalLoop=1;jettySize=auto;html=1;exitX=1;exitY=0.5;exitDx=0;exitDy=0;exitPerimeter=0;entryX=0;entryY=0.5;entryDx=0;entryDy=0;entryPerimeter=0;endArrow=none;endFill=0;" edge="1" parent="PsOL330LeHh5zJ2AcE5B-1" source="PsOL330LeHh5zJ2AcE5B-34" target="PsOL330LeHh5zJ2AcE5B-36">
          <mxGeometry relative="1" as="geometry">
            <mxPoint x="1230" y="630" as="sourcePoint" />
            <mxPoint x="1270" y="630" as="targetPoint" />
          </mxGeometry>
        </mxCell>
        <mxCell id="PsOL330LeHh5zJ2AcE5B-45" style="edgeStyle=orthogonalEdgeStyle;rounded=0;orthogonalLoop=1;jettySize=auto;html=1;exitX=0;exitY=0.5;exitDx=0;exitDy=0;exitPerimeter=0;entryX=1;entryY=0.5;entryDx=0;entryDy=0;entryPerimeter=0;endArrow=none;endFill=0;" edge="1" parent="PsOL330LeHh5zJ2AcE5B-1" source="PsOL330LeHh5zJ2AcE5B-32" target="PsOL330LeHh5zJ2AcE5B-36">
          <mxGeometry relative="1" as="geometry">
            <mxPoint x="1330" y="630" as="sourcePoint" />
            <mxPoint x="1370" y="630" as="targetPoint" />
            <Array as="points">
              <mxPoint x="1140" y="620" />
              <mxPoint x="1140" y="575" />
              <mxPoint x="1440" y="575" />
              <mxPoint x="1440" y="620" />
            </Array>
          </mxGeometry>
        </mxCell>
        <mxCell id="PsOL330LeHh5zJ2AcE5B-46" style="edgeStyle=orthogonalEdgeStyle;rounded=0;orthogonalLoop=1;jettySize=auto;html=1;exitX=0;exitY=0.5;exitDx=0;exitDy=0;exitPerimeter=0;entryX=1;entryY=0.5;entryDx=0;entryDy=0;entryPerimeter=0;endArrow=none;endFill=0;" edge="1" parent="PsOL330LeHh5zJ2AcE5B-1" source="PsOL330LeHh5zJ2AcE5B-23" target="PsOL330LeHh5zJ2AcE5B-27">
          <mxGeometry relative="1" as="geometry">
            <mxPoint x="1170" y="630" as="sourcePoint" />
            <mxPoint x="1430" y="630" as="targetPoint" />
            <Array as="points">
              <mxPoint x="1140" y="450" />
              <mxPoint x="1140" y="405" />
              <mxPoint x="1440" y="405" />
              <mxPoint x="1440" y="450" />
            </Array>
          </mxGeometry>
        </mxCell>
        <mxCell id="PsOL330LeHh5zJ2AcE5B-47" style="edgeStyle=orthogonalEdgeStyle;rounded=0;orthogonalLoop=1;jettySize=auto;html=1;exitX=0;exitY=0.5;exitDx=0;exitDy=0;exitPerimeter=0;entryX=1;entryY=0.5;entryDx=0;entryDy=0;entryPerimeter=0;endArrow=none;endFill=0;" edge="1" parent="PsOL330LeHh5zJ2AcE5B-1" source="PsOL330LeHh5zJ2AcE5B-8" target="PsOL330LeHh5zJ2AcE5B-18">
          <mxGeometry relative="1" as="geometry">
            <mxPoint x="1170" y="460" as="sourcePoint" />
            <mxPoint x="1430" y="460" as="targetPoint" />
            <Array as="points">
              <mxPoint x="1140" y="280" />
              <mxPoint x="1140" y="235" />
              <mxPoint x="1440" y="235" />
              <mxPoint x="1440" y="280" />
            </Array>
          </mxGeometry>
        </mxCell>
        <mxCell id="PsOL330LeHh5zJ2AcE5B-48" style="edgeStyle=orthogonalEdgeStyle;rounded=0;orthogonalLoop=1;jettySize=auto;html=1;exitX=0.5;exitY=0.5;exitDx=0;exitDy=0;exitPerimeter=0;" edge="1" parent="PsOL330LeHh5zJ2AcE5B-1" source="PsOL330LeHh5zJ2AcE5B-49" target="PsOL330LeHh5zJ2AcE5B-51">
          <mxGeometry relative="1" as="geometry" />
        </mxCell>
        <mxCell id="PsOL330LeHh5zJ2AcE5B-49" value="User" style="shape=umlActor;verticalLabelPosition=bottom;verticalAlign=top;html=1;outlineConnect=0;" vertex="1" parent="PsOL330LeHh5zJ2AcE5B-1">
          <mxGeometry x="30" y="415" width="30" height="60" as="geometry" />
        </mxCell>
        <mxCell id="PsOL330LeHh5zJ2AcE5B-50" style="edgeStyle=orthogonalEdgeStyle;rounded=0;orthogonalLoop=1;jettySize=auto;html=1;exitX=1;exitY=0.5;exitDx=0;exitDy=0;entryX=0;entryY=0.5;entryDx=0;entryDy=0;" edge="1" parent="PsOL330LeHh5zJ2AcE5B-1" source="PsOL330LeHh5zJ2AcE5B-51" target="PsOL330LeHh5zJ2AcE5B-55">
          <mxGeometry relative="1" as="geometry" />
        </mxCell>
        <mxCell id="mXxYgjNY4k_dA_-ZbMNV-9" style="edgeStyle=orthogonalEdgeStyle;rounded=0;orthogonalLoop=1;jettySize=auto;html=1;exitX=0.5;exitY=0;exitDx=0;exitDy=0;entryX=0.5;entryY=1;entryDx=0;entryDy=0;" edge="1" parent="PsOL330LeHh5zJ2AcE5B-1" source="PsOL330LeHh5zJ2AcE5B-51" target="mXxYgjNY4k_dA_-ZbMNV-5">
          <mxGeometry relative="1" as="geometry" />
        </mxCell>
        <mxCell id="PsOL330LeHh5zJ2AcE5B-51" value="Frontend" style="rounded=1;whiteSpace=wrap;html=1;" vertex="1" parent="PsOL330LeHh5zJ2AcE5B-1">
          <mxGeometry x="120" y="415" width="120" height="60" as="geometry" />
        </mxCell>
        <mxCell id="PsOL330LeHh5zJ2AcE5B-52" style="edgeStyle=orthogonalEdgeStyle;rounded=0;orthogonalLoop=1;jettySize=auto;html=1;exitX=1;exitY=0.5;exitDx=0;exitDy=0;entryX=0;entryY=0.5;entryDx=0;entryDy=0;" edge="1" parent="PsOL330LeHh5zJ2AcE5B-1" source="PsOL330LeHh5zJ2AcE5B-55" target="PsOL330LeHh5zJ2AcE5B-7">
          <mxGeometry relative="1" as="geometry" />
        </mxCell>
        <mxCell id="PsOL330LeHh5zJ2AcE5B-53" style="edgeStyle=orthogonalEdgeStyle;rounded=0;orthogonalLoop=1;jettySize=auto;html=1;exitX=1;exitY=0.5;exitDx=0;exitDy=0;entryX=0;entryY=0.5;entryDx=0;entryDy=0;" edge="1" parent="PsOL330LeHh5zJ2AcE5B-1" source="PsOL330LeHh5zJ2AcE5B-55" target="PsOL330LeHh5zJ2AcE5B-63">
          <mxGeometry relative="1" as="geometry" />
        </mxCell>
        <mxCell id="PsOL330LeHh5zJ2AcE5B-54" style="edgeStyle=orthogonalEdgeStyle;rounded=0;orthogonalLoop=1;jettySize=auto;html=1;exitX=1;exitY=0.5;exitDx=0;exitDy=0;entryX=0;entryY=0.5;entryDx=0;entryDy=0;" edge="1" parent="PsOL330LeHh5zJ2AcE5B-1" source="PsOL330LeHh5zJ2AcE5B-55" target="PsOL330LeHh5zJ2AcE5B-66">
          <mxGeometry relative="1" as="geometry" />
        </mxCell>
        <mxCell id="PsOL330LeHh5zJ2AcE5B-55" value="APISIX Gateway" style="rounded=1;whiteSpace=wrap;html=1;" vertex="1" parent="PsOL330LeHh5zJ2AcE5B-1">
          <mxGeometry x="400" y="415" width="120" height="60" as="geometry" />
        </mxCell>
        <mxCell id="PsOL330LeHh5zJ2AcE5B-56" style="edgeStyle=orthogonalEdgeStyle;rounded=0;orthogonalLoop=1;jettySize=auto;html=1;exitX=0.5;exitY=0;exitDx=0;exitDy=0;entryX=0.5;entryY=1;entryDx=0;entryDy=0;" edge="1" parent="PsOL330LeHh5zJ2AcE5B-1" source="PsOL330LeHh5zJ2AcE5B-58" target="PsOL330LeHh5zJ2AcE5B-59">
          <mxGeometry relative="1" as="geometry" />
        </mxCell>
        <mxCell id="PsOL330LeHh5zJ2AcE5B-57" value="Получить&amp;nbsp;&lt;div&gt;список&amp;nbsp;&lt;/div&gt;&lt;div&gt;сервисов&lt;/div&gt;" style="edgeLabel;html=1;align=center;verticalAlign=middle;resizable=0;points=[];" vertex="1" connectable="0" parent="PsOL330LeHh5zJ2AcE5B-56">
          <mxGeometry x="-0.2" y="-1" relative="1" as="geometry">
            <mxPoint as="offset" />
          </mxGeometry>
        </mxCell>
        <mxCell id="PsOL330LeHh5zJ2AcE5B-58" value="consul_kv" style="rounded=1;whiteSpace=wrap;html=1;" vertex="1" parent="PsOL330LeHh5zJ2AcE5B-1">
          <mxGeometry x="430" y="385" width="60" height="40" as="geometry" />
        </mxCell>
        <mxCell id="PsOL330LeHh5zJ2AcE5B-59" value="Consul" style="rounded=1;whiteSpace=wrap;html=1;" vertex="1" parent="PsOL330LeHh5zJ2AcE5B-1">
          <mxGeometry x="400" y="185" width="120" height="60" as="geometry" />
        </mxCell>
        <mxCell id="PsOL330LeHh5zJ2AcE5B-60" style="edgeStyle=orthogonalEdgeStyle;rounded=0;orthogonalLoop=1;jettySize=auto;html=1;exitX=1;exitY=0.5;exitDx=0;exitDy=0;entryX=0;entryY=0.5;entryDx=0;entryDy=0;" edge="1" parent="PsOL330LeHh5zJ2AcE5B-1" source="PsOL330LeHh5zJ2AcE5B-63" target="PsOL330LeHh5zJ2AcE5B-15">
          <mxGeometry relative="1" as="geometry">
            <mxPoint x="910" y="445.0000000000002" as="targetPoint" />
          </mxGeometry>
        </mxCell>
        <mxCell id="PsOL330LeHh5zJ2AcE5B-61" style="edgeStyle=orthogonalEdgeStyle;rounded=0;orthogonalLoop=1;jettySize=auto;html=1;exitX=1;exitY=0.25;exitDx=0;exitDy=0;entryX=1;entryY=0.5;entryDx=0;entryDy=0;fillColor=#ffe6cc;strokeColor=#d79b00;" edge="1" parent="PsOL330LeHh5zJ2AcE5B-1" source="PsOL330LeHh5zJ2AcE5B-63" target="PsOL330LeHh5zJ2AcE5B-59">
          <mxGeometry relative="1" as="geometry">
            <Array as="points">
              <mxPoint x="850" y="430" />
              <mxPoint x="850" y="215" />
            </Array>
          </mxGeometry>
        </mxCell>
        <mxCell id="PsOL330LeHh5zJ2AcE5B-62" value="Регистрация" style="edgeLabel;html=1;align=center;verticalAlign=middle;resizable=0;points=[];" vertex="1" connectable="0" parent="PsOL330LeHh5zJ2AcE5B-61">
          <mxGeometry x="0.3466" y="-2" relative="1" as="geometry">
            <mxPoint x="126" y="52" as="offset" />
          </mxGeometry>
        </mxCell>
        <mxCell id="PsOL330LeHh5zJ2AcE5B-63" value="pymongo-api" style="rounded=1;whiteSpace=wrap;html=1;" vertex="1" parent="PsOL330LeHh5zJ2AcE5B-1">
          <mxGeometry x="620" y="415" width="120" height="60" as="geometry" />
        </mxCell>
        <mxCell id="PsOL330LeHh5zJ2AcE5B-64" style="edgeStyle=orthogonalEdgeStyle;rounded=0;orthogonalLoop=1;jettySize=auto;html=1;exitX=1;exitY=0.5;exitDx=0;exitDy=0;entryX=0;entryY=0.5;entryDx=0;entryDy=0;" edge="1" parent="PsOL330LeHh5zJ2AcE5B-1" source="PsOL330LeHh5zJ2AcE5B-66" target="PsOL330LeHh5zJ2AcE5B-15">
          <mxGeometry relative="1" as="geometry">
            <mxPoint x="910" y="445" as="targetPoint" />
            <Array as="points">
              <mxPoint x="810" y="585" />
              <mxPoint x="810" y="445" />
            </Array>
          </mxGeometry>
        </mxCell>
        <mxCell id="PsOL330LeHh5zJ2AcE5B-65" style="edgeStyle=orthogonalEdgeStyle;rounded=0;orthogonalLoop=1;jettySize=auto;html=1;exitX=0.5;exitY=1;exitDx=0;exitDy=0;entryX=0.5;entryY=0;entryDx=0;entryDy=0;fillColor=#e1d5e7;strokeColor=#9673a6;" edge="1" parent="PsOL330LeHh5zJ2AcE5B-1" source="PsOL330LeHh5zJ2AcE5B-66" target="PsOL330LeHh5zJ2AcE5B-69">
          <mxGeometry relative="1" as="geometry" />
        </mxCell>
        <mxCell id="PsOL330LeHh5zJ2AcE5B-66" value="pymongo-api" style="rounded=1;whiteSpace=wrap;html=1;" vertex="1" parent="PsOL330LeHh5zJ2AcE5B-1">
          <mxGeometry x="620" y="555" width="120" height="60" as="geometry" />
        </mxCell>
        <mxCell id="PsOL330LeHh5zJ2AcE5B-67" style="edgeStyle=orthogonalEdgeStyle;rounded=0;orthogonalLoop=1;jettySize=auto;html=1;exitX=1;exitY=0.25;exitDx=0;exitDy=0;entryX=1;entryY=0.5;entryDx=0;entryDy=0;fillColor=#ffe6cc;strokeColor=#d79b00;" edge="1" parent="PsOL330LeHh5zJ2AcE5B-1" source="PsOL330LeHh5zJ2AcE5B-66" target="PsOL330LeHh5zJ2AcE5B-59">
          <mxGeometry relative="1" as="geometry">
            <mxPoint x="780" y="440" as="sourcePoint" />
            <mxPoint x="530" y="270" as="targetPoint" />
            <Array as="points">
              <mxPoint x="890" y="570" />
              <mxPoint x="890" y="215" />
            </Array>
          </mxGeometry>
        </mxCell>
        <mxCell id="PsOL330LeHh5zJ2AcE5B-68" value="Регистрация" style="edgeLabel;html=1;align=center;verticalAlign=middle;resizable=0;points=[];" vertex="1" connectable="0" parent="PsOL330LeHh5zJ2AcE5B-67">
          <mxGeometry x="0.3466" y="-2" relative="1" as="geometry">
            <mxPoint x="94" y="277" as="offset" />
          </mxGeometry>
        </mxCell>
        <mxCell id="PsOL330LeHh5zJ2AcE5B-69" value="" style="rounded=0;whiteSpace=wrap;html=1;" vertex="1" parent="PsOL330LeHh5zJ2AcE5B-1">
          <mxGeometry x="525" y="685" width="310" height="240" as="geometry" />
        </mxCell>
        <mxCell id="PsOL330LeHh5zJ2AcE5B-70" value="redis&lt;div&gt;Master&lt;/div&gt;" style="shape=cylinder3;whiteSpace=wrap;html=1;boundedLbl=1;backgroundOutline=1;size=15;" vertex="1" parent="PsOL330LeHh5zJ2AcE5B-1">
          <mxGeometry x="545" y="724" width="70" height="70" as="geometry" />
        </mxCell>
        <mxCell id="PsOL330LeHh5zJ2AcE5B-71" value="redis&lt;div&gt;Slave&lt;/div&gt;" style="shape=cylinder3;whiteSpace=wrap;html=1;boundedLbl=1;backgroundOutline=1;size=15;" vertex="1" parent="PsOL330LeHh5zJ2AcE5B-1">
          <mxGeometry x="545" y="844" width="70" height="70" as="geometry" />
        </mxCell>
        <mxCell id="PsOL330LeHh5zJ2AcE5B-72" value="Redis Cluster" style="text;html=1;align=center;verticalAlign=middle;resizable=0;points=[];autosize=1;strokeColor=none;fillColor=none;" vertex="1" parent="PsOL330LeHh5zJ2AcE5B-1">
          <mxGeometry x="525" y="685" width="100" height="30" as="geometry" />
        </mxCell>
        <mxCell id="PsOL330LeHh5zJ2AcE5B-73" style="edgeStyle=orthogonalEdgeStyle;rounded=0;orthogonalLoop=1;jettySize=auto;html=1;exitX=0.5;exitY=1;exitDx=0;exitDy=0;exitPerimeter=0;entryX=0.5;entryY=0;entryDx=0;entryDy=0;entryPerimeter=0;" edge="1" parent="PsOL330LeHh5zJ2AcE5B-1" source="PsOL330LeHh5zJ2AcE5B-70" target="PsOL330LeHh5zJ2AcE5B-71">
          <mxGeometry relative="1" as="geometry" />
        </mxCell>
        <mxCell id="PsOL330LeHh5zJ2AcE5B-74" value="redis&lt;div&gt;Master&lt;/div&gt;" style="shape=cylinder3;whiteSpace=wrap;html=1;boundedLbl=1;backgroundOutline=1;size=15;" vertex="1" parent="PsOL330LeHh5zJ2AcE5B-1">
          <mxGeometry x="645" y="724" width="70" height="70" as="geometry" />
        </mxCell>
        <mxCell id="PsOL330LeHh5zJ2AcE5B-75" value="redis&lt;div&gt;Slave&lt;/div&gt;" style="shape=cylinder3;whiteSpace=wrap;html=1;boundedLbl=1;backgroundOutline=1;size=15;" vertex="1" parent="PsOL330LeHh5zJ2AcE5B-1">
          <mxGeometry x="645" y="844" width="70" height="70" as="geometry" />
        </mxCell>
        <mxCell id="PsOL330LeHh5zJ2AcE5B-76" style="edgeStyle=orthogonalEdgeStyle;rounded=0;orthogonalLoop=1;jettySize=auto;html=1;exitX=0.5;exitY=1;exitDx=0;exitDy=0;exitPerimeter=0;entryX=0.5;entryY=0;entryDx=0;entryDy=0;entryPerimeter=0;" edge="1" parent="PsOL330LeHh5zJ2AcE5B-1" source="PsOL330LeHh5zJ2AcE5B-74" target="PsOL330LeHh5zJ2AcE5B-75">
          <mxGeometry relative="1" as="geometry" />
        </mxCell>
        <mxCell id="PsOL330LeHh5zJ2AcE5B-77" value="redis&lt;div&gt;Master&lt;/div&gt;" style="shape=cylinder3;whiteSpace=wrap;html=1;boundedLbl=1;backgroundOutline=1;size=15;" vertex="1" parent="PsOL330LeHh5zJ2AcE5B-1">
          <mxGeometry x="745" y="724" width="70" height="70" as="geometry" />
        </mxCell>
        <mxCell id="PsOL330LeHh5zJ2AcE5B-78" value="redis&lt;div&gt;Slave&lt;/div&gt;" style="shape=cylinder3;whiteSpace=wrap;html=1;boundedLbl=1;backgroundOutline=1;size=15;" vertex="1" parent="PsOL330LeHh5zJ2AcE5B-1">
          <mxGeometry x="745" y="844" width="70" height="70" as="geometry" />
        </mxCell>
        <mxCell id="PsOL330LeHh5zJ2AcE5B-79" style="edgeStyle=orthogonalEdgeStyle;rounded=0;orthogonalLoop=1;jettySize=auto;html=1;exitX=0.5;exitY=1;exitDx=0;exitDy=0;exitPerimeter=0;entryX=0.5;entryY=0;entryDx=0;entryDy=0;entryPerimeter=0;" edge="1" parent="PsOL330LeHh5zJ2AcE5B-1" source="PsOL330LeHh5zJ2AcE5B-77" target="PsOL330LeHh5zJ2AcE5B-78">
          <mxGeometry relative="1" as="geometry" />
        </mxCell>
        <mxCell id="PsOL330LeHh5zJ2AcE5B-80" style="rounded=0;orthogonalLoop=1;jettySize=auto;html=1;exitX=0.855;exitY=1;exitDx=0;exitDy=-4.35;exitPerimeter=0;entryX=0.145;entryY=0;entryDx=0;entryDy=4.35;entryPerimeter=0;endArrow=none;endFill=0;dashed=1;" edge="1" parent="PsOL330LeHh5zJ2AcE5B-1" source="PsOL330LeHh5zJ2AcE5B-70" target="PsOL330LeHh5zJ2AcE5B-75">
          <mxGeometry relative="1" as="geometry" />
        </mxCell>
        <mxCell id="PsOL330LeHh5zJ2AcE5B-81" value="&lt;font style=&quot;font-size: 6px;&quot;&gt;gossip&lt;/font&gt;" style="edgeLabel;html=1;align=center;verticalAlign=middle;resizable=0;points=[];" vertex="1" connectable="0" parent="PsOL330LeHh5zJ2AcE5B-80">
          <mxGeometry x="-0.1541" y="-1" relative="1" as="geometry">
            <mxPoint x="-11" y="3" as="offset" />
          </mxGeometry>
        </mxCell>
        <mxCell id="PsOL330LeHh5zJ2AcE5B-82" style="rounded=0;orthogonalLoop=1;jettySize=auto;html=1;exitX=0.855;exitY=1;exitDx=0;exitDy=-4.35;exitPerimeter=0;entryX=0.145;entryY=0;entryDx=0;entryDy=4.35;entryPerimeter=0;endArrow=none;endFill=0;dashed=1;" edge="1" parent="PsOL330LeHh5zJ2AcE5B-1" source="PsOL330LeHh5zJ2AcE5B-70" target="PsOL330LeHh5zJ2AcE5B-78">
          <mxGeometry relative="1" as="geometry">
            <mxPoint x="615" y="800" as="sourcePoint" />
            <mxPoint x="665" y="828" as="targetPoint" />
          </mxGeometry>
        </mxCell>
        <mxCell id="PsOL330LeHh5zJ2AcE5B-83" style="rounded=0;orthogonalLoop=1;jettySize=auto;html=1;exitX=0.145;exitY=1;exitDx=0;exitDy=-4.35;exitPerimeter=0;entryX=0.855;entryY=0;entryDx=0;entryDy=4.35;entryPerimeter=0;endArrow=none;endFill=0;dashed=1;" edge="1" parent="PsOL330LeHh5zJ2AcE5B-1" source="PsOL330LeHh5zJ2AcE5B-74" target="PsOL330LeHh5zJ2AcE5B-71">
          <mxGeometry relative="1" as="geometry">
            <mxPoint x="615" y="800" as="sourcePoint" />
            <mxPoint x="665" y="828" as="targetPoint" />
          </mxGeometry>
        </mxCell>
        <mxCell id="PsOL330LeHh5zJ2AcE5B-84" style="rounded=0;orthogonalLoop=1;jettySize=auto;html=1;exitX=0.855;exitY=1;exitDx=0;exitDy=-4.35;exitPerimeter=0;entryX=0.145;entryY=0;entryDx=0;entryDy=4.35;entryPerimeter=0;endArrow=none;endFill=0;dashed=1;" edge="1" parent="PsOL330LeHh5zJ2AcE5B-1" source="PsOL330LeHh5zJ2AcE5B-74" target="PsOL330LeHh5zJ2AcE5B-78">
          <mxGeometry relative="1" as="geometry">
            <mxPoint x="665" y="800" as="sourcePoint" />
            <mxPoint x="615" y="828" as="targetPoint" />
          </mxGeometry>
        </mxCell>
        <mxCell id="PsOL330LeHh5zJ2AcE5B-85" style="rounded=0;orthogonalLoop=1;jettySize=auto;html=1;exitX=0.145;exitY=1;exitDx=0;exitDy=-4.35;exitPerimeter=0;entryX=0.855;entryY=0;entryDx=0;entryDy=4.35;entryPerimeter=0;endArrow=none;endFill=0;dashed=1;" edge="1" parent="PsOL330LeHh5zJ2AcE5B-1" source="PsOL330LeHh5zJ2AcE5B-77" target="PsOL330LeHh5zJ2AcE5B-75">
          <mxGeometry relative="1" as="geometry">
            <mxPoint x="715" y="800" as="sourcePoint" />
            <mxPoint x="765" y="828" as="targetPoint" />
          </mxGeometry>
        </mxCell>
        <mxCell id="PsOL330LeHh5zJ2AcE5B-86" style="rounded=0;orthogonalLoop=1;jettySize=auto;html=1;exitX=0.145;exitY=1;exitDx=0;exitDy=-4.35;exitPerimeter=0;entryX=0.855;entryY=0;entryDx=0;entryDy=4.35;entryPerimeter=0;endArrow=none;endFill=0;dashed=1;" edge="1" parent="PsOL330LeHh5zJ2AcE5B-1" source="PsOL330LeHh5zJ2AcE5B-77" target="PsOL330LeHh5zJ2AcE5B-71">
          <mxGeometry relative="1" as="geometry">
            <mxPoint x="765" y="800" as="sourcePoint" />
            <mxPoint x="715" y="828" as="targetPoint" />
          </mxGeometry>
        </mxCell>
        <mxCell id="PsOL330LeHh5zJ2AcE5B-87" style="edgeStyle=orthogonalEdgeStyle;rounded=0;orthogonalLoop=1;jettySize=auto;html=1;exitX=1;exitY=0.75;exitDx=0;exitDy=0;entryX=0.75;entryY=0;entryDx=0;entryDy=0;fillColor=#e1d5e7;strokeColor=#9673a6;" edge="1" parent="PsOL330LeHh5zJ2AcE5B-1" source="PsOL330LeHh5zJ2AcE5B-63" target="PsOL330LeHh5zJ2AcE5B-69">
          <mxGeometry relative="1" as="geometry">
            <Array as="points">
              <mxPoint x="758" y="460" />
              <mxPoint x="758" y="580" />
              <mxPoint x="758" y="580" />
            </Array>
          </mxGeometry>
        </mxCell>
        <mxCell id="PsOL330LeHh5zJ2AcE5B-88" style="edgeStyle=orthogonalEdgeStyle;rounded=0;orthogonalLoop=1;jettySize=auto;html=1;exitX=1;exitY=0.75;exitDx=0;exitDy=0;entryX=0.823;entryY=0.001;entryDx=0;entryDy=0;entryPerimeter=0;fillColor=#e1d5e7;strokeColor=#9673a6;" edge="1" parent="PsOL330LeHh5zJ2AcE5B-1" source="PsOL330LeHh5zJ2AcE5B-7" target="PsOL330LeHh5zJ2AcE5B-69">
          <mxGeometry relative="1" as="geometry" />
        </mxCell>
        <mxCell id="PsOL330LeHh5zJ2AcE5B-89" value="Кэширование" style="text;html=1;align=center;verticalAlign=middle;resizable=0;points=[];autosize=1;strokeColor=none;fillColor=none;" vertex="1" parent="PsOL330LeHh5zJ2AcE5B-1">
          <mxGeometry x="685" y="645" width="100" height="30" as="geometry" />
        </mxCell>
        <mxCell id="mXxYgjNY4k_dA_-ZbMNV-11" style="edgeStyle=orthogonalEdgeStyle;rounded=0;orthogonalLoop=1;jettySize=auto;html=1;exitX=1;exitY=0.25;exitDx=0;exitDy=0;entryX=0;entryY=0.75;entryDx=0;entryDy=0;fillColor=#f8cecc;strokeColor=#b85450;" edge="1" parent="PsOL330LeHh5zJ2AcE5B-1" source="mXxYgjNY4k_dA_-ZbMNV-0" target="PsOL330LeHh5zJ2AcE5B-55">
          <mxGeometry relative="1" as="geometry" />
        </mxCell>
        <mxCell id="mXxYgjNY4k_dA_-ZbMNV-0" value="" style="rounded=0;whiteSpace=wrap;html=1;" vertex="1" parent="PsOL330LeHh5zJ2AcE5B-1">
          <mxGeometry x="45" y="560" width="270" height="110" as="geometry" />
        </mxCell>
        <mxCell id="mXxYgjNY4k_dA_-ZbMNV-1" value="CDN 1" style="text;html=1;align=center;verticalAlign=middle;resizable=0;points=[];autosize=1;strokeColor=none;fillColor=none;" vertex="1" parent="PsOL330LeHh5zJ2AcE5B-1">
          <mxGeometry x="50" y="560" width="60" height="30" as="geometry" />
        </mxCell>
        <mxCell id="mXxYgjNY4k_dA_-ZbMNV-2" value="CDN" style="rounded=1;whiteSpace=wrap;html=1;" vertex="1" parent="PsOL330LeHh5zJ2AcE5B-1">
          <mxGeometry x="65" y="595" width="120" height="60" as="geometry" />
        </mxCell>
        <mxCell id="mXxYgjNY4k_dA_-ZbMNV-3" value="Cache" style="shape=cylinder3;whiteSpace=wrap;html=1;boundedLbl=1;backgroundOutline=1;size=15;" vertex="1" parent="PsOL330LeHh5zJ2AcE5B-1">
          <mxGeometry x="225" y="590" width="70" height="70" as="geometry" />
        </mxCell>
        <mxCell id="mXxYgjNY4k_dA_-ZbMNV-4" style="edgeStyle=orthogonalEdgeStyle;rounded=0;orthogonalLoop=1;jettySize=auto;html=1;exitX=0.5;exitY=1;exitDx=0;exitDy=0;entryX=0.5;entryY=0;entryDx=0;entryDy=0;" edge="1" parent="PsOL330LeHh5zJ2AcE5B-1" source="PsOL330LeHh5zJ2AcE5B-51" target="mXxYgjNY4k_dA_-ZbMNV-0">
          <mxGeometry relative="1" as="geometry" />
        </mxCell>
        <mxCell id="mXxYgjNY4k_dA_-ZbMNV-10" style="edgeStyle=orthogonalEdgeStyle;rounded=0;orthogonalLoop=1;jettySize=auto;html=1;exitX=1;exitY=0.75;exitDx=0;exitDy=0;entryX=0;entryY=0.25;entryDx=0;entryDy=0;fillColor=#f8cecc;strokeColor=#b85450;" edge="1" parent="PsOL330LeHh5zJ2AcE5B-1" source="mXxYgjNY4k_dA_-ZbMNV-5" target="PsOL330LeHh5zJ2AcE5B-55">
          <mxGeometry relative="1" as="geometry" />
        </mxCell>
        <mxCell id="mXxYgjNY4k_dA_-ZbMNV-5" value="" style="rounded=0;whiteSpace=wrap;html=1;" vertex="1" parent="PsOL330LeHh5zJ2AcE5B-1">
          <mxGeometry x="45" y="220" width="270" height="110" as="geometry" />
        </mxCell>
        <mxCell id="mXxYgjNY4k_dA_-ZbMNV-6" value="CDN 1" style="text;html=1;align=center;verticalAlign=middle;resizable=0;points=[];autosize=1;strokeColor=none;fillColor=none;" vertex="1" parent="PsOL330LeHh5zJ2AcE5B-1">
          <mxGeometry x="50" y="220" width="60" height="30" as="geometry" />
        </mxCell>
        <mxCell id="mXxYgjNY4k_dA_-ZbMNV-7" value="CDN" style="rounded=1;whiteSpace=wrap;html=1;" vertex="1" parent="PsOL330LeHh5zJ2AcE5B-1">
          <mxGeometry x="65" y="255" width="120" height="60" as="geometry" />
        </mxCell>
        <mxCell id="mXxYgjNY4k_dA_-ZbMNV-8" value="Cache" style="shape=cylinder3;whiteSpace=wrap;html=1;boundedLbl=1;backgroundOutline=1;size=15;" vertex="1" parent="PsOL330LeHh5zJ2AcE5B-1">
          <mxGeometry x="225" y="250" width="70" height="70" as="geometry" />
        </mxCell>
        <mxCell id="mXxYgjNY4k_dA_-ZbMNV-12" value="Обновление кэша" style="text;html=1;align=center;verticalAlign=middle;resizable=0;points=[];autosize=1;strokeColor=none;fillColor=none;" vertex="1" parent="PsOL330LeHh5zJ2AcE5B-1">
          <mxGeometry x="295" y="500" width="130" height="30" as="geometry" />
        </mxCell>
        <mxCell id="mXxYgjNY4k_dA_-ZbMNV-13" value="Обновление кэша" style="text;html=1;align=center;verticalAlign=middle;resizable=0;points=[];autosize=1;strokeColor=none;fillColor=none;" vertex="1" parent="PsOL330LeHh5zJ2AcE5B-1">
          <mxGeometry x="295" y="360" width="130" height="30" as="geometry" />
        </mxCell>
      </root>
    </mxGraphModel>
  </diagram>
</mxfile>
